<svg width="21" height="20" viewBox="0 0 21 20" fill="none" xmlns="http://www.w3.org/2000/svg">
<path d="M7.203 1.052C5.135 1.174 4.176 1.517 3.194 2.485C2.244 3.42 1.881 4.337 1.718 6.213C1.653 6.957 1.653 13.028 1.718 13.773C1.881 15.648 2.244 16.563 3.193 17.5C4.187 18.481 5.142 18.815 7.29 18.934C8.123 18.98 13.122 18.981 13.993 18.934C16.157 18.82 17.139 18.468 18.156 17.444C19.182 16.411 19.51 15.404 19.609 12.985C19.655 11.878 19.655 8.107 19.609 7C19.51 4.581 19.182 3.574 18.156 2.541C17.226 1.605 16.4 1.267 14.588 1.08C14.12 1.032 7.933 1.008 7.203 1.052ZM15.873 4.082C16.094 4.153 16.363 4.4 16.481 4.642C16.754 5.2 16.463 5.903 15.868 6.128C15.358 6.321 14.773 6.086 14.506 5.583C14.427 5.433 14.413 5.364 14.413 5.11C14.412 4.764 14.493 4.557 14.715 4.335C15.03 4.02 15.413 3.936 15.873 4.082ZM11.476 5.409C12.393 5.568 13.247 6.022 13.941 6.718C14.819 7.581 15.311 8.762 15.305 9.993C15.311 11.223 14.819 12.404 13.941 13.266C13.026 14.181 11.93 14.638 10.65 14.639C9.722 14.649 8.812 14.375 8.043 13.855C7.69 13.624 7.04 12.98 6.809 12.634C5.562 10.766 5.759 8.365 7.288 6.778C8.362 5.642 9.938 5.126 11.476 5.409ZM10.057 6.966C8.909 7.204 7.989 8.061 7.668 9.188C7.552 9.593 7.552 10.392 7.668 10.798C7.954 11.81 8.729 12.611 9.732 12.929C10.785 13.261 11.936 12.997 12.739 12.239C13.156 11.858 13.459 11.368 13.613 10.825C13.697 10.55 13.707 10.462 13.707 9.993C13.707 9.523 13.697 9.435 13.613 9.16C13.459 8.617 13.156 8.127 12.739 7.746C12.416 7.438 12.028 7.206 11.603 7.068C11.287 6.962 11.224 6.953 10.738 6.944C10.511 6.935 10.283 6.943 10.057 6.966Z" fill="white"/>
</svg>
