<svg width="21" height="20" viewBox="0 0 21 20" fill="none" xmlns="http://www.w3.org/2000/svg">
<path d="M3.17699 1.07901C2.57499 1.23201 2.09399 1.60701 1.83399 2.12501C1.66099 2.47001 1.60599 3.06101 1.70799 3.49201C1.86999 4.18101 2.42699 4.73001 3.15999 4.92401C3.46999 5.00601 4.14499 5.00601 4.45499 4.92401C5.75699 4.58001 6.35899 3.27901 5.76999 2.08101C5.55699 1.64901 5.15599 1.30501 4.66099 1.13001C4.31299 1.00701 3.55899 0.981007 3.17699 1.07901ZM14.491 6.35201C13.911 6.44701 13.388 6.65201 12.916 6.97001C12.632 7.16101 12.161 7.61801 11.933 7.92401L11.753 8.16601L11.743 7.37301L11.734 6.58001H7.86799V18.13H11.735L11.736 14.691C11.736 10.886 11.731 10.98 11.961 10.543C12.455 9.60301 13.325 9.18201 14.334 9.39601C15.171 9.57401 15.64 10.237 15.76 11.41C15.779 11.598 15.794 13.132 15.794 14.936L15.795 18.13H19.645V14.566C19.645 12.305 19.631 10.862 19.608 10.62C19.478 9.29501 19.066 8.28601 18.353 7.54801C17.777 6.94601 17.027 6.53901 16.208 6.38601C15.804 6.30601 14.883 6.28801 14.491 6.35201ZM1.86499 12.355V18.13H5.74999V6.58001H1.86499V12.355Z" fill="white"/>
</svg>
