<svg width="168" height="42" viewBox="0 0 168 42" fill="none" xmlns="http://www.w3.org/2000/svg">
<g clip-path="url(#clip0_1_912)">
<path d="M14.895 0.263C13.908 0.263 13.108 1.063 13.108 2.05V11.597C13.108 12.577 12.314 13.372 11.334 13.372H1.787C0.8 13.372 0 14.172 0 15.159V26.776C0 27.763 0.8 28.563 1.787 28.563H3.36C9.894 28.563 15.191 23.266 15.191 16.732C15.191 16.027 15.763 15.455 16.469 15.455H24.443C25.423 15.455 26.217 16.249 26.217 17.229V25.202C26.217 25.908 25.645 26.48 24.939 26.48C18.405 26.48 13.108 31.777 13.108 38.311V39.884C13.108 40.871 13.908 41.672 14.895 41.672H26.512C27.5 41.672 28.3 40.871 28.3 39.884V30.338C28.3 29.358 29.094 28.563 30.074 28.563H39.622C40.609 28.563 41.409 27.763 41.409 26.776V15.159C41.409 14.172 40.609 13.372 39.622 13.372H30.074C29.094 13.372 28.3 12.577 28.3 11.597V2.05C28.3 1.063 27.5 0.263 26.512 0.263H14.895Z" fill="#3D65FF"/>
<path d="M52 10V31.622H59.774C67.044 31.622 72.206 27.122 72.206 20.795C72.206 14.469 67.044 10 59.774 10H52ZM60.372 27.405H56.658V14.218H60.372C64.495 14.218 67.422 16.956 67.422 20.795C67.422 24.667 64.495 27.405 60.372 27.405Z" fill="#13182F"/>
<path d="M159.23 20.764L167.161 10H161.748L156.555 17.081L151.362 10H145.854L153.785 20.858L145.854 31.622H151.267L156.46 24.541L161.654 31.622H167.161L159.23 20.764Z" fill="#13182F"/>
<path d="M135.274 14.973C132.788 14.973 130.773 16.295 129.703 18.403V15.351H125.108V31.622H129.703V23.848C129.703 20.795 131.875 18.844 135.274 18.844V14.973Z" fill="#13182F"/>
<path d="M121.03 27.594L122.131 30.584C121.187 31.433 119.708 32 118.418 32C115.522 32 113.508 29.954 113.508 27.027V19.064H111.273V15.351H113.508V10.881H117.945V15.351H121.47V19.064H117.945V26.303C117.945 27.373 118.606 28.129 119.456 28.129C120.086 28.129 120.715 27.908 121.03 27.594Z" fill="#13182F"/>
<path d="M94.529 23.471C94.529 28.097 98.589 32 103.373 32C106.112 32 108.315 30.898 109.92 29.136L106.867 26.555C106.017 27.499 104.695 28.129 103.436 28.129C101.013 28.129 98.999 25.989 98.999 23.439C98.999 20.953 101.013 18.844 103.405 18.844C104.664 18.844 105.954 19.442 106.773 20.355L109.825 17.742C108.252 16.043 106.049 14.973 103.436 14.973C98.621 14.973 94.529 18.844 94.529 23.471Z" fill="#13182F"/>
<path d="M83.581 32C78.703 32 74.705 28.16 74.705 23.471C74.705 18.781 78.703 14.973 83.581 14.973C88.459 14.973 92.457 18.781 92.457 23.471C92.457 28.16 88.459 32 83.581 32ZM83.581 28.129C86.036 28.129 88.019 26.02 88.019 23.471C88.019 20.921 86.036 18.844 83.581 18.844C81.126 18.844 79.112 20.921 79.112 23.471C79.112 26.02 81.126 28.129 83.581 28.129Z" fill="#13182F"/>
</g>
<defs>
<clipPath id="clip0_1_912">
<rect width="168" height="42" fill="white"/>
</clipPath>
</defs>
</svg>
