<svg width="17" height="16" viewBox="0 0 17 16" fill="none" xmlns="http://www.w3.org/2000/svg">
<path d="M5.24801 7.739C5.83001 8.95799 6.80201 9.941 8.00601 10.528C8.09401 10.571 8.19201 10.589 8.29001 10.581C8.38801 10.574 8.48301 10.541 8.56401 10.485L10.332 9.288C10.41 9.234 10.5 9.201 10.594 9.192C10.688 9.184 10.783 9.199 10.869 9.237L14.178 10.678C14.291 10.726 14.386 10.81 14.447 10.918C14.508 11.025 14.533 11.15 14.518 11.274C14.413 12.104 14.013 12.866 13.394 13.419C12.774 13.972 11.977 14.277 11.152 14.277C8.60201 14.277 6.15601 13.25 4.35201 11.422C2.54901 9.59299 1.53601 7.113 1.53601 4.527C1.53601 3.69 1.83701 2.882 2.38201 2.254C2.92801 1.626 3.68001 1.221 4.49801 1.114C4.62001 1.099 4.74301 1.124 4.84901 1.186C4.95501 1.248 5.03801 1.344 5.08501 1.459L6.50701 4.821C6.54301 4.907 6.55901 5.002 6.55201 5.095C6.54401 5.18899 6.51401 5.28 6.46401 5.359L5.28301 7.18C5.23101 7.26199 5.20001 7.357 5.19401 7.455C5.18801 7.553 5.20601 7.651 5.24801 7.739Z" fill="white"/>
</svg>
