<svg width="83" height="56" viewBox="0 0 83 56" fill="none" xmlns="http://www.w3.org/2000/svg">
<path d="M5.59002 21.4851C11.965 17.8601 25.64 8.91108 29.34 2.11108C22.798 20.4441 8.49002 56.4601 3.59002 53.8601C-2.53498 50.6101 14.59 27.3601 25.34 20.8601C36.09 14.3611 24.715 27.2351 23.34 28.8601C21.965 30.4851 34.84 20.4851 35.715 23.2351C36.59 25.9851 40.84 20.2351 42.965 20.8601C45.09 21.4851 43.59 24.8601 49.34 22.3601C55.09 19.8601 57.215 22.1101 60.84 21.4851C64.465 20.8601 70.84 19.3601 74.59 20.8601C77.59 22.0611 79.923 19.9441 80.715 18.7351" stroke="#3D65FF" stroke-width="3" stroke-linecap="round" stroke-linejoin="round"/>
</svg>
