<svg width="19" height="19" viewBox="0 0 19 19" fill="none" xmlns="http://www.w3.org/2000/svg">
<path d="M9.399 3.07299C9.623 2.68799 10.178 2.68799 10.402 3.07299L12.399 6.50099C12.481 6.64199 12.619 6.74199 12.778 6.77599L16.655 7.61599C17.09 7.70999 17.262 8.23799 16.966 8.56999L14.322 11.529C14.213 11.65 14.161 11.812 14.177 11.974L14.577 15.921C14.622 16.364 14.173 16.69 13.765 16.511L10.135 14.911C9.986 14.845 9.816 14.845 9.667 14.911L6.036 16.511C5.629 16.69 5.179 16.364 5.224 15.921L5.624 11.974C5.64 11.812 5.588 11.65 5.479 11.529L2.836 8.56999C2.539 8.23799 2.711 7.70999 3.146 7.61599L7.023 6.77599C7.183 6.74199 7.32 6.64199 7.402 6.50099L9.399 3.07299Z" stroke="#13182F" stroke-width="1.5" stroke-miterlimit="10"/>
</svg>
