<svg width="21" height="20" viewBox="0 0 21 20" fill="none" xmlns="http://www.w3.org/2000/svg">
<g clip-path="url(#clip0_10_131)">
<path d="M1.22597 1.549C2.52297 3.212 8.16497 10.659 8.15297 10.692C8.13797 10.73 2.37397 17.526 1.73197 18.261L1.54097 18.48H2.98897L4.43797 18.479L6.93997 15.538C7.79397 14.535 8.64697 13.531 9.49697 12.525C9.54997 12.457 9.65097 12.584 11.854 15.467L14.155 18.48H20.104L19.95 18.279C17.454 15.019 12.738 8.83 12.726 8.797C12.712 8.763 15.674 5.249 18.482 1.969L18.878 1.505H17.433L15.988 1.506L13.666 4.235C12.389 5.737 11.334 6.964 11.321 6.963C11.308 6.962 10.362 5.733 9.21797 4.233L7.13897 1.505H4.16497C1.79097 1.505 1.19797 1.514 1.22597 1.549ZM11.418 9.993L16.551 16.713L15.798 16.722C15.055 16.731 15.045 16.73 14.97 16.652C14.929 16.608 12.654 13.635 9.91397 10.045C7.17497 6.455 4.88697 3.458 4.83097 3.386L4.72797 3.254L5.50597 3.263L6.28497 3.273L11.418 9.993Z" fill="white"/>
</g>
<defs>
<clipPath id="clip0_10_131">
<rect width="20" height="20" fill="white" transform="translate(0.359985)"/>
</clipPath>
</defs>
</svg>
