<svg width="381" height="120" viewBox="0 0 381 120" fill="none" xmlns="http://www.w3.org/2000/svg">
<g clip-path="url(#clip0_1_413)">
<path d="M5.79669 15.7725C4.90034 15.7725 4.10123 15.6077 3.39937 15.2779C2.70174 14.9481 2.14786 14.4936 1.73774 13.9143C1.32761 13.3351 1.1141 12.6713 1.09718 11.9229H3.76087C3.79047 12.426 4.00187 12.834 4.39508 13.1469C4.78829 13.4598 5.25549 13.6162 5.79669 13.6162C6.22795 13.6162 6.60848 13.5211 6.93827 13.3308C7.27228 13.1363 7.53231 12.8679 7.71835 12.5254C7.90861 12.1787 8.00374 11.7812 8.00374 11.3331C8.00374 10.8764 7.90649 10.4748 7.712 10.1281C7.52174 9.78137 7.25749 9.51078 6.91924 9.31628C6.58099 9.12179 6.19413 9.02243 5.75863 9.01821C5.37811 9.01821 5.00815 9.09642 4.64877 9.25286C4.29361 9.4093 4.01667 9.62282 3.81795 9.89342L1.37624 9.45581L1.99142 2.60633H9.93174V4.85144H4.25555L3.91942 8.10494H3.99553C4.22384 7.78361 4.56843 7.51724 5.02929 7.30584C5.49015 7.09443 6.00598 6.98873 6.57677 6.98873C7.35896 6.98873 8.05659 7.17265 8.66966 7.54049C9.28273 7.90834 9.76685 8.41359 10.122 9.05626C10.4772 9.6947 10.6526 10.4304 10.6484 11.2633C10.6526 12.1385 10.4497 12.9165 10.0396 13.5972C9.63366 14.2737 9.06499 14.8064 8.33353 15.1954C7.6063 15.5802 6.76069 15.7725 5.79669 15.7725ZM24.8278 8.63134L22.3543 8.78355C22.3121 8.57214 22.2212 8.38188 22.0816 8.21276C21.9421 8.03941 21.7582 7.90199 21.5299 7.80052C21.3058 7.69482 21.0373 7.64197 20.7244 7.64197C20.3058 7.64197 19.9528 7.73076 19.6653 7.90834C19.3778 8.08169 19.234 8.31423 19.234 8.60597C19.234 8.83851 19.327 9.03512 19.5131 9.19578C19.6991 9.35645 20.0183 9.48541 20.4707 9.58265L22.2338 9.93781C23.1809 10.1323 23.887 10.4452 24.3521 10.8764C24.8172 11.3077 25.0497 11.8743 25.0497 12.5761C25.0497 13.2146 24.8616 13.7748 24.4853 14.2568C24.1132 14.7388 23.6016 15.1151 22.9505 15.3857C22.3036 15.652 21.5574 15.7852 20.7117 15.7852C19.4222 15.7852 18.3948 15.5168 17.6295 14.9798C16.8684 14.4386 16.4224 13.7029 16.2913 12.7727L18.9486 12.6332C19.029 13.0264 19.2235 13.3266 19.5321 13.5338C19.8408 13.7367 20.2361 13.8382 20.7181 13.8382C21.1916 13.8382 21.5722 13.7473 21.8597 13.5655C22.1514 13.3795 22.2994 13.1406 22.3036 12.8488C22.2994 12.6036 22.1958 12.4028 21.9928 12.2463C21.7899 12.0857 21.477 11.9631 21.0542 11.8785L19.3672 11.5424C18.4159 11.3521 17.7077 11.0223 17.2426 10.553C16.7817 10.0837 16.5513 9.48541 16.5513 8.75818C16.5513 8.13242 16.7204 7.59334 17.0587 7.14094C17.4012 6.68854 17.881 6.33972 18.4983 6.09449C19.1199 5.84927 19.8471 5.72665 20.68 5.72665C21.9104 5.72665 22.8786 5.98668 23.5847 6.50673C24.295 7.02678 24.7094 7.73499 24.8278 8.63134ZM31.9325 5.85349V7.88297H26.0661V5.85349H31.9325ZM27.3979 3.5196H30.0996V12.6015C30.0996 12.851 30.1377 13.0454 30.2138 13.185C30.2899 13.3203 30.3956 13.4154 30.5309 13.4704C30.6704 13.5253 30.8311 13.5528 31.0129 13.5528C31.1397 13.5528 31.2666 13.5422 31.3934 13.5211C31.5203 13.4957 31.6175 13.4767 31.6852 13.464L32.1101 15.4745C31.9748 15.5168 31.7845 15.5654 31.5393 15.6203C31.2941 15.6795 30.996 15.7155 30.6451 15.7282C29.9939 15.7535 29.4232 15.6668 28.9327 15.4681C28.4465 15.2694 28.0681 14.9608 27.7975 14.5422C27.5269 14.1236 27.3937 13.5951 27.3979 12.9567V3.5196ZM36.4703 15.7789C35.8488 15.7789 35.2949 15.6711 34.8087 15.4554C34.3224 15.2356 33.9377 14.9121 33.6544 14.4851C33.3753 14.0538 33.2358 13.5169 33.2358 12.8742C33.2358 12.333 33.3352 11.8785 33.5339 11.5107C33.7326 11.1428 34.0032 10.8468 34.3457 10.6228C34.6882 10.3987 35.0771 10.2295 35.5126 10.1154C35.9524 10.0012 36.4132 9.9209 36.8952 9.87439C37.4618 9.8152 37.9184 9.76023 38.2651 9.70949C38.6118 9.65453 38.8634 9.5742 39.0198 9.46849C39.1763 9.36279 39.2545 9.20635 39.2545 8.99918V8.96113C39.2545 8.55946 39.1276 8.2487 38.8739 8.02884C38.6245 7.80898 38.2693 7.69905 37.8085 7.69905C37.3222 7.69905 36.9354 7.80686 36.6479 8.02249C36.3604 8.2339 36.1701 8.50027 36.0771 8.8216L33.5783 8.61865C33.7051 8.02672 33.9546 7.51513 34.3267 7.08386C34.6987 6.64837 35.1786 6.31435 35.7663 6.08181C36.3582 5.84504 37.0432 5.72665 37.8212 5.72665C38.3624 5.72665 38.8803 5.79007 39.375 5.91691C39.8739 6.04376 40.3157 6.24036 40.7005 6.50673C41.0895 6.7731 41.396 7.11557 41.6201 7.53415C41.8442 7.9485 41.9562 8.4453 41.9562 9.02455V15.595H39.394V14.2441H39.3179C39.1615 14.5485 38.9522 14.817 38.69 15.0495C38.4279 15.2779 38.1129 15.4576 37.7451 15.5886C37.3772 15.7155 36.9523 15.7789 36.4703 15.7789ZM37.244 13.9143C37.6415 13.9143 37.9924 13.8361 38.2968 13.6797C38.6012 13.519 38.8401 13.3034 39.0135 13.0328C39.1868 12.7622 39.2735 12.4556 39.2735 12.1132V11.0794C39.1889 11.1344 39.0727 11.1851 38.9247 11.2316C38.7809 11.2739 38.6182 11.314 38.4363 11.3521C38.2545 11.3859 38.0727 11.4176 37.8909 11.4472C37.7091 11.4726 37.5442 11.4959 37.3962 11.517C37.0791 11.5635 36.8022 11.6375 36.5654 11.739C36.3286 11.8404 36.1447 11.9779 36.0137 12.1512C35.8826 12.3203 35.8171 12.5317 35.8171 12.7854C35.8171 13.1533 35.9502 13.4344 36.2166 13.6289C36.4872 13.8192 36.8297 13.9143 37.244 13.9143ZM44.0523 15.595V5.85349H46.6716V7.55318H46.773C46.9506 6.94856 47.2487 6.49193 47.6673 6.18328C48.0859 5.87041 48.5679 5.71397 49.1133 5.71397C49.2486 5.71397 49.3944 5.72242 49.5509 5.73933C49.7073 5.75625 49.8447 5.7795 49.9631 5.8091V8.20642C49.8363 8.16836 49.6608 8.13454 49.4367 8.10494C49.2126 8.07535 49.0076 8.06055 48.8215 8.06055C48.4241 8.06055 48.0689 8.14722 47.7561 8.32057C47.4474 8.4897 47.2022 8.72647 47.0204 9.03089C46.8428 9.33531 46.754 9.68624 46.754 10.0837V15.595H44.0523ZM59.4652 8.63134L56.9918 8.78355C56.9495 8.57214 56.8586 8.38188 56.7191 8.21276C56.5795 8.03941 56.3956 7.90199 56.1673 7.80052C55.9432 7.69482 55.6747 7.64197 55.3618 7.64197C54.9433 7.64197 54.5902 7.73076 54.3027 7.90834C54.0152 8.08169 53.8714 8.31423 53.8714 8.60597C53.8714 8.83851 53.9645 9.03512 54.1505 9.19578C54.3365 9.35645 54.6558 9.48541 55.1082 9.58265L56.8713 9.93781C57.8184 10.1323 58.5244 10.4452 58.9895 10.8764C59.4546 11.3077 59.6872 11.8743 59.6872 12.5761C59.6872 13.2146 59.499 13.7748 59.1227 14.2568C58.7506 14.7388 58.239 15.1151 57.5879 15.3857C56.941 15.652 56.1948 15.7852 55.3492 15.7852C54.0596 15.7852 53.0322 15.5168 52.2669 14.9798C51.5058 14.4386 51.0598 13.7029 50.9287 12.7727L53.5861 12.6332C53.6664 13.0264 53.8609 13.3266 54.1695 13.5338C54.4782 13.7367 54.8735 13.8382 55.3555 13.8382C55.829 13.8382 56.2096 13.7473 56.4971 13.5655C56.7888 13.3795 56.9368 13.1406 56.941 12.8488C56.9368 12.6036 56.8332 12.4028 56.6303 12.2463C56.4273 12.0857 56.1144 11.9631 55.6916 11.8785L54.0046 11.5424C53.0533 11.3521 52.3451 11.0223 51.88 10.553C51.4192 10.0837 51.1887 9.48541 51.1887 8.75818C51.1887 8.13242 51.3579 7.59334 51.6961 7.14094C52.0386 6.68854 52.5185 6.33972 53.1358 6.09449C53.7573 5.84927 54.4845 5.72665 55.3174 5.72665C56.5478 5.72665 57.516 5.98668 58.2221 6.50673C58.9324 7.02678 59.3468 7.73499 59.4652 8.63134ZM69.9233 15.7852C68.9382 15.7852 68.0862 15.5759 67.3675 15.1574C66.6529 14.7346 66.1011 14.1469 65.7122 13.3943C65.3232 12.6374 65.1287 11.7601 65.1287 10.7623C65.1287 9.756 65.3232 8.87656 65.7122 8.12397C66.1011 7.36714 66.6529 6.77944 67.3675 6.36086C68.0862 5.93805 68.9382 5.72665 69.9233 5.72665C70.9085 5.72665 71.7583 5.93805 72.4728 6.36086C73.1916 6.77944 73.7455 7.36714 74.1345 8.12397C74.5235 8.87656 74.718 9.756 74.718 10.7623C74.718 11.7601 74.5235 12.6374 74.1345 13.3943C73.7455 14.1469 73.1916 14.7346 72.4728 15.1574C71.7583 15.5759 70.9085 15.7852 69.9233 15.7852ZM69.936 13.6923C70.3842 13.6923 70.7584 13.5655 71.0586 13.3118C71.3588 13.0539 71.585 12.703 71.7372 12.259C71.8936 11.8151 71.9718 11.3098 71.9718 10.7433C71.9718 10.1767 71.8936 9.67144 71.7372 9.22749C71.585 8.78355 71.3588 8.43262 71.0586 8.1747C70.7584 7.91679 70.3842 7.78784 69.936 7.78784C69.4836 7.78784 69.1031 7.91679 68.7944 8.1747C68.49 8.43262 68.2596 8.78355 68.1031 9.22749C67.9509 9.67144 67.8748 10.1767 67.8748 10.7433C67.8748 11.3098 67.9509 11.8151 68.1031 12.259C68.2596 12.703 68.49 13.0539 68.7944 13.3118C69.1031 13.5655 69.4836 13.6923 69.936 13.6923ZM79.1765 9.96318V15.595H76.4747V5.85349H79.0496V7.5722H79.1638C79.3794 7.00564 79.7409 6.55747 80.2483 6.22768C80.7556 5.89366 81.3708 5.72665 82.0938 5.72665C82.7703 5.72665 83.3601 5.87463 83.8633 6.1706C84.3664 6.46656 84.7575 6.88937 85.0366 7.43902C85.3156 7.98444 85.4551 8.63556 85.4551 9.39239V15.595H82.7534V9.87439C82.7576 9.27823 82.6054 8.81314 82.2968 8.47913C81.9881 8.14088 81.5632 7.97176 81.022 7.97176C80.6584 7.97176 80.3371 8.04998 80.058 8.20642C79.7832 8.36285 79.5676 8.59117 79.4111 8.89136C79.2589 9.18733 79.1807 9.5446 79.1765 9.96318Z" fill="#666E82"/>
<g clip-path="url(#clip1_1_413)">
<path d="M10.24 53.335C10.24 52.094 11.247 51.087 12.488 51.087H29.676C30.917 51.087 31.923 52.094 31.923 53.335V70.727C31.923 71.969 30.917 72.975 29.676 72.975H22.16V62.964C22.16 61.722 21.154 60.716 19.913 60.716H10.24V53.335Z" fill="#BFC6D6"/>
<path d="M10.24 60.7159H2.72499C1.48299 60.7159 0.47699 61.7219 0.47699 62.9639V80.3559C0.47699 81.5969 1.48299 82.6039 2.72499 82.6039H19.913C21.154 82.6039 22.16 81.5969 22.16 80.3559V72.9749H12.488C11.247 72.9749 10.24 71.9689 10.24 70.7269V60.7159Z" fill="#BFC6D6"/>
<path d="M56.556 73.545C59.137 73.545 61.46 71.767 62.091 69.329L66.594 69.931C65.905 74.434 61.661 77.675 56.441 77.675C50.132 77.675 45.543 73.086 45.543 66.748C45.543 60.41 50.132 55.821 56.441 55.821C61.603 55.821 65.848 59.148 66.594 63.765L62.062 64.282C61.489 61.758 59.194 59.951 56.556 59.951C52.914 59.951 50.361 62.762 50.361 66.748C50.361 70.734 52.943 73.545 56.556 73.545Z" fill="#BFC6D6"/>
<path d="M84.606 69.616C84.606 64.912 81.279 61.7 76.433 61.7C71.615 61.7 68.288 64.912 68.288 69.616C68.288 74.29 71.615 77.531 76.433 77.531C81.279 77.531 84.606 74.29 84.606 69.616ZM80.276 69.616C80.276 72.025 78.698 73.745 76.433 73.745C74.196 73.745 72.618 72.025 72.618 69.616C72.618 67.206 74.196 65.486 76.433 65.486C78.698 65.486 80.276 67.206 80.276 69.616Z" fill="#BFC6D6"/>
<path d="M91.098 76.957H86.796V62.274H90.926V64.023C91.844 62.532 93.45 61.7 95.228 61.7C97.35 61.7 99.128 62.704 99.96 64.31C100.906 62.704 102.856 61.7 104.892 61.7C108.219 61.7 110.542 64.195 110.542 67.723V76.957H106.24V68.583C106.24 66.834 105.15 65.543 103.516 65.486C101.852 65.486 100.734 66.776 100.734 68.583V76.957H96.432V68.583C96.432 66.719 95.4 65.486 93.794 65.486C92.159 65.486 91.098 66.719 91.098 68.583V76.957Z" fill="#BFC6D6"/>
<path d="M122.279 77.531C126.38 77.531 129.247 74.262 129.247 69.616C129.247 64.97 126.351 61.7 122.279 61.7C120.242 61.7 118.55 62.589 117.375 64.052V62.274H113.13V83.5529H117.432V75.179C118.608 76.67 120.271 77.531 122.279 77.531ZM124.946 69.616C124.946 71.939 123.34 73.659 121.103 73.659C118.866 73.659 117.26 71.939 117.26 69.616C117.26 67.293 118.866 65.572 121.103 65.572C123.311 65.572 124.946 67.264 124.946 69.616Z" fill="#BFC6D6"/>
<path d="M142.811 64.31V62.274H147.113V76.957H142.811V74.921C141.664 76.556 139.914 77.531 137.821 77.531C133.691 77.531 130.795 74.262 130.795 69.616C130.795 64.97 133.691 61.7 137.821 61.7C139.914 61.7 141.664 62.675 142.811 64.31ZM138.939 73.745C141.176 73.745 142.782 71.996 142.782 69.616C142.782 67.235 141.176 65.486 138.939 65.486C136.702 65.486 135.096 67.235 135.096 69.616C135.096 71.996 136.702 73.745 138.939 73.745Z" fill="#BFC6D6"/>
<path d="M154.161 62.274H149.974V76.957H154.276V68.698C154.276 66.834 155.653 65.486 157.345 65.486C159.037 65.486 160.069 66.748 160.069 68.526V76.957H164.371V67.78C164.371 64.253 162.134 61.7 158.836 61.7C156.915 61.7 155.194 62.675 154.161 64.253V62.274Z" fill="#BFC6D6"/>
<path d="M167.585 79.883V83.066C168.388 83.382 169.506 83.582 170.424 83.582C173.407 83.582 174.984 81.259 176.361 77.474L182.039 62.274H177.565L174.296 71.738L170.309 62.274H165.606L172.546 77.101C171.887 78.879 171.17 80.169 169.334 80.169C168.818 80.169 168.101 80.055 167.585 79.883Z" fill="#BFC6D6"/>
</g>
<g clip-path="url(#clip2_1_413)">
<path d="M9.09102 116.08C9.43502 115.86 9.87502 115.86 10.22 116.08L13.956 118.468C14.747 118.974 15.752 118.266 15.549 117.345L14.52 112.675C14.438 112.304 14.56 111.918 14.839 111.662L18.31 108.477C18.988 107.856 18.607 106.721 17.694 106.639L13.227 106.238C12.833 106.202 12.492 105.947 12.344 105.578L10.632 101.301C10.278 100.415 9.03302 100.415 8.67802 101.301L6.96702 105.578C6.81902 105.947 6.47802 106.202 6.08302 106.238L1.61602 106.639C0.703022 106.721 0.323022 107.856 1.00002 108.477L4.47202 111.662C4.75102 111.918 4.87202 112.304 4.79002 112.675L3.76202 117.345C3.55902 118.266 4.56302 118.974 5.35402 118.468L9.09102 116.08Z" fill="#FDB52A"/>
</g>
<g clip-path="url(#clip3_1_413)">
<path d="M39.091 116.08C39.435 115.86 39.875 115.86 40.22 116.08L43.956 118.468C44.747 118.974 45.752 118.266 45.549 117.345L44.52 112.675C44.438 112.304 44.56 111.918 44.839 111.662L48.31 108.477C48.988 107.856 48.607 106.721 47.694 106.639L43.227 106.238C42.833 106.202 42.492 105.947 42.344 105.578L40.632 101.301C40.278 100.415 39.033 100.415 38.678 101.301L36.967 105.578C36.819 105.947 36.478 106.202 36.083 106.238L31.616 106.639C30.703 106.721 30.323 107.856 31 108.477L34.472 111.662C34.751 111.918 34.872 112.304 34.79 112.675L33.762 117.345C33.559 118.266 34.563 118.974 35.354 118.468L39.091 116.08Z" fill="#FDB52A"/>
</g>
<g clip-path="url(#clip4_1_413)">
<path d="M69.091 116.08C69.435 115.86 69.875 115.86 70.22 116.08L73.956 118.468C74.747 118.974 75.752 118.266 75.549 117.345L74.52 112.675C74.438 112.304 74.56 111.918 74.839 111.662L78.31 108.477C78.988 107.856 78.607 106.721 77.694 106.639L73.227 106.238C72.833 106.202 72.492 105.947 72.344 105.578L70.632 101.301C70.278 100.415 69.033 100.415 68.678 101.301L66.967 105.578C66.819 105.947 66.478 106.202 66.083 106.238L61.616 106.639C60.703 106.721 60.323 107.856 61 108.477L64.472 111.662C64.751 111.918 64.872 112.304 64.79 112.675L63.762 117.345C63.559 118.266 64.563 118.974 65.354 118.468L69.091 116.08Z" fill="#FDB52A"/>
</g>
<g clip-path="url(#clip5_1_413)">
<path d="M99.091 116.08C99.435 115.86 99.875 115.86 100.22 116.08L103.956 118.468C104.747 118.974 105.752 118.266 105.549 117.345L104.52 112.675C104.438 112.304 104.56 111.918 104.839 111.662L108.31 108.477C108.988 107.856 108.607 106.721 107.694 106.639L103.227 106.238C102.833 106.202 102.492 105.947 102.344 105.578L100.632 101.301C100.278 100.415 99.033 100.415 98.678 101.301L96.967 105.578C96.819 105.947 96.478 106.202 96.083 106.238L91.616 106.639C90.703 106.721 90.323 107.856 91 108.477L94.472 111.662C94.751 111.918 94.872 112.304 94.79 112.675L93.762 117.345C93.559 118.266 94.563 118.974 95.354 118.468L99.091 116.08Z" fill="#FDB52A"/>
</g>
<g clip-path="url(#clip6_1_413)">
<path d="M129.091 116.08C129.435 115.86 129.875 115.86 130.22 116.08L133.956 118.468C134.747 118.974 135.752 118.266 135.549 117.345L134.52 112.675C134.438 112.304 134.56 111.918 134.839 111.662L138.31 108.477C138.988 107.856 138.607 106.721 137.694 106.639L133.227 106.238C132.833 106.202 132.492 105.947 132.344 105.578L130.632 101.301C130.278 100.415 129.033 100.415 128.678 101.301L126.967 105.578C126.819 105.947 126.478 106.202 126.083 106.238L121.616 106.639C120.703 106.721 120.323 107.856 121 108.477L124.472 111.662C124.751 111.918 124.872 112.304 124.79 112.675L123.762 117.345C123.559 118.266 124.563 118.974 125.354 118.468L129.091 116.08Z" fill="#FDB52A"/>
</g>
<g clip-path="url(#clip7_1_413)">
<path d="M275.19 56.891H270.172L276.739 77.31H284.081L290.619 56.891H285.601L280.41 73.754L275.19 56.891Z" fill="#BFC6D6"/>
<path d="M326.35 72.5489V65.8959H324.285V62.6259H326.551L327.038 58.9269H330.652V62.6259H333.978V65.8959H330.652V72.1189C330.652 73.3519 331.397 74.1839 332.602 74.1839C333.003 74.1839 333.634 74.0979 334.122 73.9539V77.4249C333.233 77.7109 332.086 77.8839 331.168 77.8839C328.243 77.8839 326.35 75.6749 326.35 72.5489Z" fill="#BFC6D6"/>
<path d="M364.085 69.853C364.085 65.265 367.44 62.053 372.172 62.053C376.875 62.053 380.087 65.265 380.087 69.911C380.087 70.284 380.087 70.886 380.03 71.201L368.53 71.173C368.903 73.237 370.308 74.585 372.258 74.585C373.864 74.585 375.212 73.668 375.671 72.377L379.542 72.922C378.825 75.79 375.728 77.884 372.143 77.884C367.411 77.884 364.085 74.585 364.085 69.853ZM368.501 68.592H375.728C375.47 66.727 374.036 65.351 372.086 65.351C370.193 65.351 368.874 66.641 368.501 68.592Z" fill="#BFC6D6"/>
<path d="M353.31 62.6259H357.439V64.4899C358.3 63.0279 359.762 62.0809 361.368 62.0809C361.942 62.0809 362.544 62.2249 363.118 62.4539V66.2689C362.315 65.9239 361.34 65.7519 360.709 65.7519C358.845 65.7519 357.611 67.3009 357.611 69.5089V77.3099H353.31V62.6259Z" fill="#BFC6D6"/>
<path d="M346.253 77.31H350.44V62.626H346.138V70.886C346.138 72.75 344.761 74.098 343.069 74.098C341.377 74.098 340.345 72.836 340.345 71.058V62.626H336.043V71.804C336.043 75.331 338.28 77.884 341.578 77.884C343.5 77.884 345.22 76.908 346.253 75.302V77.31Z" fill="#BFC6D6"/>
<path d="M312.439 62.626H308.252V77.31H312.553V69.05C312.553 67.186 313.93 65.838 315.622 65.838C317.314 65.838 318.347 67.1 318.347 68.878V77.31H322.648V68.133C322.648 64.605 320.411 62.053 317.113 62.053C315.192 62.053 313.471 63.028 312.439 64.605V62.626Z" fill="#BFC6D6"/>
<path d="M290.052 69.853C290.052 65.265 293.407 62.053 298.139 62.053C302.843 62.053 306.055 65.265 306.055 69.911C306.055 70.284 306.055 70.886 305.997 71.201L294.497 71.173C294.87 73.237 296.275 74.585 298.225 74.585C299.832 74.585 301.179 73.668 301.638 72.377L305.51 72.922C304.793 75.79 301.696 77.884 298.111 77.884C293.379 77.884 290.052 74.585 290.052 69.853ZM294.469 68.592H301.696C301.438 66.727 300.004 65.351 298.054 65.351C296.161 65.351 294.841 66.641 294.469 68.592Z" fill="#BFC6D6"/>
<path d="M241.915 62.192L241.914 52.941C241.914 52.47 242.297 52.087 242.768 52.087H252.019C257.599 52.087 262.123 56.611 262.123 62.192C262.123 67.075 258.66 71.149 254.055 72.091C253.397 72.225 252.716 72.296 252.019 72.296V63.148C252.015 62.619 251.586 62.192 251.056 62.192H241.915Z" fill="#BFC6D6"/>
<path d="M241.915 62.192V71.334C241.915 71.865 242.345 72.296 242.877 72.296H252.019V81.438C252.019 81.969 251.588 82.4 251.056 82.4H241.914C236.334 82.4 231.81 77.876 231.81 72.296C231.81 66.716 236.334 62.192 241.915 62.192Z" fill="#BFC6D6"/>
</g>
<g clip-path="url(#clip8_1_413)">
<path d="M240.091 115.08C240.435 114.86 240.875 114.86 241.22 115.08L244.956 117.468C245.747 117.974 246.752 117.266 246.549 116.345L245.52 111.675C245.438 111.304 245.56 110.918 245.839 110.662L249.31 107.477C249.988 106.856 249.607 105.721 248.694 105.639L244.227 105.238C243.833 105.202 243.492 104.947 243.344 104.578L241.632 100.301C241.278 99.415 240.033 99.415 239.678 100.301L237.967 104.578C237.819 104.947 237.478 105.202 237.083 105.238L232.616 105.639C231.703 105.721 231.323 106.856 232 107.477L235.472 110.662C235.751 110.918 235.872 111.304 235.79 111.675L234.762 116.345C234.559 117.266 235.563 117.974 236.354 117.468L240.091 115.08Z" fill="#FDB52A"/>
</g>
<g clip-path="url(#clip9_1_413)">
<path d="M270.091 115.08C270.435 114.86 270.875 114.86 271.22 115.08L274.956 117.468C275.747 117.974 276.752 117.266 276.549 116.345L275.52 111.675C275.438 111.304 275.56 110.918 275.839 110.662L279.31 107.477C279.988 106.856 279.607 105.721 278.694 105.639L274.227 105.238C273.833 105.202 273.492 104.947 273.344 104.578L271.632 100.301C271.278 99.415 270.033 99.415 269.678 100.301L267.967 104.578C267.819 104.947 267.478 105.202 267.083 105.238L262.616 105.639C261.703 105.721 261.323 106.856 262 107.477L265.472 110.662C265.751 110.918 265.872 111.304 265.79 111.675L264.762 116.345C264.559 117.266 265.563 117.974 266.354 117.468L270.091 115.08Z" fill="#FDB52A"/>
</g>
<g clip-path="url(#clip10_1_413)">
<path d="M300.091 115.08C300.435 114.86 300.875 114.86 301.22 115.08L304.956 117.468C305.747 117.974 306.752 117.266 306.549 116.345L305.52 111.675C305.438 111.304 305.56 110.918 305.839 110.662L309.31 107.477C309.988 106.856 309.607 105.721 308.694 105.639L304.227 105.238C303.833 105.202 303.492 104.947 303.344 104.578L301.632 100.301C301.278 99.415 300.033 99.415 299.678 100.301L297.967 104.578C297.819 104.947 297.478 105.202 297.083 105.238L292.616 105.639C291.703 105.721 291.323 106.856 292 107.477L295.472 110.662C295.751 110.918 295.872 111.304 295.79 111.675L294.762 116.345C294.559 117.266 295.563 117.974 296.354 117.468L300.091 115.08Z" fill="#FDB52A"/>
</g>
<g clip-path="url(#clip11_1_413)">
<path d="M330.091 115.08C330.435 114.86 330.875 114.86 331.22 115.08L334.956 117.468C335.747 117.974 336.752 117.266 336.549 116.345L335.52 111.675C335.438 111.304 335.56 110.918 335.839 110.662L339.31 107.477C339.988 106.856 339.607 105.721 338.694 105.639L334.227 105.238C333.833 105.202 333.492 104.947 333.344 104.578L331.632 100.301C331.278 99.415 330.033 99.415 329.678 100.301L327.967 104.578C327.819 104.947 327.478 105.202 327.083 105.238L322.616 105.639C321.703 105.721 321.323 106.856 322 107.477L325.472 110.662C325.751 110.918 325.872 111.304 325.79 111.675L324.762 116.345C324.559 117.266 325.563 117.974 326.354 117.468L330.091 115.08Z" fill="#FDB52A"/>
</g>
<g clip-path="url(#clip12_1_413)">
<path d="M360.091 115.08C360.435 114.86 360.875 114.86 361.22 115.08L364.956 117.468C365.747 117.974 366.752 117.266 366.549 116.345L365.52 111.675C365.438 111.304 365.56 110.918 365.839 110.662L369.31 107.477C369.988 106.856 369.607 105.721 368.694 105.639L364.227 105.238C363.833 105.202 363.492 104.947 363.344 104.578L361.632 100.301C361.278 99.415 360.033 99.415 359.678 100.301L357.967 104.578C357.819 104.947 357.478 105.202 357.083 105.238L352.616 105.639C351.703 105.721 351.323 106.856 352 107.477L355.472 110.662C355.751 110.918 355.872 111.304 355.79 111.675L354.762 116.345C354.559 117.266 355.563 117.974 356.354 117.468L360.091 115.08Z" fill="#FDB52A"/>
</g>
</g>
<defs>
<clipPath id="clip0_1_413">
<rect width="381" height="118.98" fill="white" transform="translate(0 0.594971)"/>
</clipPath>
<clipPath id="clip1_1_413">
<rect width="183" height="33" fill="white" transform="translate(0 50.585)"/>
</clipPath>
<clipPath id="clip2_1_413">
<rect width="20" height="20" fill="white" transform="translate(0 99.585)"/>
</clipPath>
<clipPath id="clip3_1_413">
<rect width="20" height="20" fill="white" transform="translate(30 99.585)"/>
</clipPath>
<clipPath id="clip4_1_413">
<rect width="20" height="20" fill="white" transform="translate(60 99.585)"/>
</clipPath>
<clipPath id="clip5_1_413">
<rect width="20" height="20" fill="white" transform="translate(90 99.585)"/>
</clipPath>
<clipPath id="clip6_1_413">
<rect width="20" height="20" fill="white" transform="translate(120 99.585)"/>
</clipPath>
<clipPath id="clip7_1_413">
<rect width="150" height="31" fill="white" transform="translate(231 51.585)"/>
</clipPath>
<clipPath id="clip8_1_413">
<rect width="20" height="20" fill="white" transform="translate(231 98.585)"/>
</clipPath>
<clipPath id="clip9_1_413">
<rect width="20" height="20" fill="white" transform="translate(261 98.585)"/>
</clipPath>
<clipPath id="clip10_1_413">
<rect width="20" height="20" fill="white" transform="translate(291 98.585)"/>
</clipPath>
<clipPath id="clip11_1_413">
<rect width="20" height="20" fill="white" transform="translate(321 98.585)"/>
</clipPath>
<clipPath id="clip12_1_413">
<rect width="20" height="20" fill="white" transform="translate(351 98.585)"/>
</clipPath>
</defs>
</svg>
