<svg width="1856" height="453" viewBox="0 0 1856 453" fill="none" xmlns="http://www.w3.org/2000/svg">
<g clip-path="url(#clip0_1_1111)">
<rect y="0.969727" width="1856" height="451.97" rx="40" fill="#3D65FF"/>
<rect x="426.61" y="-333.44" width="928" height="928" rx="464" transform="rotate(58 426.61 -333.44)" fill="#AAEAFF"/>
<rect x="319.61" y="-397.41" width="928" height="928" rx="464" transform="rotate(58 319.61 -397.41)" fill="#0CB9F1"/>
<path d="M878.563 110.97V99.0497H883.587C884.377 99.0497 885.049 99.1884 885.603 99.4657C886.169 99.7324 886.601 100.116 886.899 100.618C887.209 101.108 887.363 101.706 887.363 102.41C887.363 102.954 887.214 103.466 886.915 103.946C886.627 104.415 886.163 104.804 885.523 105.114V104.106C886.11 104.33 886.574 104.607 886.915 104.938C887.257 105.268 887.497 105.636 887.635 106.042C887.774 106.447 887.843 106.874 887.843 107.322C887.843 108.463 887.465 109.359 886.707 110.01C885.961 110.65 884.921 110.97 883.587 110.97H878.563ZM880.739 109.05H883.811C884.377 109.05 884.825 108.895 885.155 108.586C885.497 108.266 885.667 107.844 885.667 107.322C885.667 106.799 885.497 106.378 885.155 106.058C884.825 105.738 884.377 105.578 883.811 105.578H880.739V109.05ZM880.739 103.674H883.699C884.147 103.674 884.505 103.546 884.771 103.29C885.038 103.023 885.171 102.682 885.171 102.266C885.171 101.85 885.038 101.519 884.771 101.274C884.505 101.028 884.147 100.906 883.699 100.906H880.739V103.674ZM896.458 111.162C895.583 111.162 894.767 111.007 894.01 110.698C893.253 110.388 892.591 109.956 892.026 109.402C891.461 108.847 891.018 108.196 890.698 107.45C890.389 106.692 890.234 105.876 890.234 105.002C890.234 104.116 890.389 103.3 890.698 102.554C891.007 101.807 891.445 101.156 892.01 100.602C892.575 100.047 893.237 99.6204 893.994 99.3217C894.751 99.0124 895.573 98.8577 896.458 98.8577C897.343 98.8577 898.165 99.0124 898.922 99.3217C899.679 99.6311 900.341 100.063 900.906 100.618C901.471 101.162 901.909 101.807 902.218 102.554C902.538 103.3 902.698 104.116 902.698 105.002C902.698 105.876 902.538 106.692 902.218 107.45C901.898 108.196 901.455 108.847 900.89 109.402C900.325 109.956 899.663 110.388 898.906 110.698C898.159 111.007 897.343 111.162 896.458 111.162ZM896.458 109.178C897.045 109.178 897.583 109.076 898.074 108.874C898.565 108.66 898.991 108.367 899.354 107.994C899.727 107.62 900.01 107.178 900.202 106.666C900.405 106.154 900.506 105.599 900.506 105.002C900.506 104.404 900.405 103.855 900.202 103.354C900.01 102.842 899.727 102.399 899.354 102.026C898.991 101.642 898.565 101.348 898.074 101.146C897.583 100.943 897.045 100.842 896.458 100.842C895.882 100.842 895.349 100.943 894.858 101.146C894.367 101.348 893.935 101.642 893.562 102.026C893.199 102.399 892.917 102.842 892.714 103.354C892.511 103.855 892.41 104.404 892.41 105.002C892.41 105.599 892.511 106.154 892.714 106.666C892.917 107.178 893.199 107.62 893.562 107.994C893.935 108.367 894.367 108.66 894.858 108.874C895.349 109.076 895.882 109.178 896.458 109.178ZM911.465 111.162C910.59 111.162 909.774 111.007 909.017 110.698C908.259 110.388 907.598 109.956 907.033 109.402C906.467 108.847 906.025 108.196 905.705 107.45C905.395 106.692 905.241 105.876 905.241 105.002C905.241 104.116 905.395 103.3 905.705 102.554C906.014 101.807 906.451 101.156 907.017 100.602C907.582 100.047 908.243 99.6204 909.001 99.3217C909.758 99.0124 910.579 98.8577 911.465 98.8577C912.35 98.8577 913.171 99.0124 913.929 99.3217C914.686 99.6311 915.347 100.063 915.913 100.618C916.478 101.162 916.915 101.807 917.225 102.554C917.545 103.3 917.705 104.116 917.705 105.002C917.705 105.876 917.545 106.692 917.225 107.45C916.905 108.196 916.462 108.847 915.897 109.402C915.331 109.956 914.67 110.388 913.913 110.698C913.166 111.007 912.35 111.162 911.465 111.162ZM911.465 109.178C912.051 109.178 912.59 109.076 913.081 108.874C913.571 108.66 913.998 108.367 914.361 107.994C914.734 107.62 915.017 107.178 915.209 106.666C915.411 106.154 915.513 105.599 915.513 105.002C915.513 104.404 915.411 103.855 915.209 103.354C915.017 102.842 914.734 102.399 914.361 102.026C913.998 101.642 913.571 101.348 913.081 101.146C912.59 100.943 912.051 100.842 911.465 100.842C910.889 100.842 910.355 100.943 909.865 101.146C909.374 101.348 908.942 101.642 908.569 102.026C908.206 102.399 907.923 102.842 907.721 103.354C907.518 103.855 907.417 104.404 907.417 105.002C907.417 105.599 907.518 106.154 907.721 106.666C907.923 107.178 908.206 107.62 908.569 107.994C908.942 108.367 909.374 108.66 909.865 108.874C910.355 109.076 910.889 109.178 911.465 109.178ZM920.6 110.97V99.0497H922.776V105.258L922.184 105.05L927.256 99.0497H929.992L925.24 104.682L925.368 103.146L930.136 110.97H927.576L924.376 105.722L922.776 107.626V110.97H920.6ZM936.223 110.97V99.0497H937.919L944.479 107.882L943.599 108.058V99.0497H945.775V110.97H944.063L937.599 102.074L938.399 101.898V110.97H936.223ZM954.914 111.162C954.04 111.162 953.224 111.007 952.466 110.698C951.709 110.388 951.048 109.956 950.482 109.402C949.917 108.847 949.474 108.196 949.154 107.45C948.845 106.692 948.69 105.876 948.69 105.002C948.69 104.116 948.845 103.3 949.154 102.554C949.464 101.807 949.901 101.156 950.466 100.602C951.032 100.047 951.693 99.6204 952.45 99.3217C953.208 99.0124 954.029 98.8577 954.914 98.8577C955.8 98.8577 956.621 99.0124 957.378 99.3217C958.136 99.6311 958.797 100.063 959.362 100.618C959.928 101.162 960.365 101.807 960.674 102.554C960.994 103.3 961.154 104.116 961.154 105.002C961.154 105.876 960.994 106.692 960.674 107.45C960.354 108.196 959.912 108.847 959.346 109.402C958.781 109.956 958.12 110.388 957.362 110.698C956.616 111.007 955.8 111.162 954.914 111.162ZM954.914 109.178C955.501 109.178 956.04 109.076 956.53 108.874C957.021 108.66 957.448 108.367 957.81 107.994C958.184 107.62 958.466 107.178 958.658 106.666C958.861 106.154 958.962 105.599 958.962 105.002C958.962 104.404 958.861 103.855 958.658 103.354C958.466 102.842 958.184 102.399 957.81 102.026C957.448 101.642 957.021 101.348 956.53 101.146C956.04 100.943 955.501 100.842 954.914 100.842C954.338 100.842 953.805 100.943 953.314 101.146C952.824 101.348 952.392 101.642 952.018 102.026C951.656 102.399 951.373 102.842 951.17 103.354C950.968 103.855 950.866 104.404 950.866 105.002C950.866 105.599 950.968 106.154 951.17 106.666C951.373 107.178 951.656 107.62 952.018 107.994C952.392 108.367 952.824 108.66 953.314 108.874C953.805 109.076 954.338 109.178 954.914 109.178ZM965.961 110.97L962.761 99.0497H965.097L967.609 109.21H967.001L969.625 99.0497H971.881L974.489 109.21H973.881L976.393 99.0497H978.729L975.529 110.97H973.033L970.393 101.082H971.097L968.457 110.97H965.961Z" fill="white"/>
<path d="M693.278 185.47V145.24H710.234C712.898 145.24 715.166 145.708 717.038 146.644C718.946 147.544 720.404 148.84 721.412 150.532C722.456 152.188 722.978 154.204 722.978 156.58C722.978 158.416 722.474 160.144 721.466 161.764C720.494 163.348 718.928 164.662 716.768 165.706V162.304C718.748 163.06 720.314 163.996 721.466 165.112C722.618 166.228 723.428 167.47 723.896 168.838C724.364 170.206 724.598 171.646 724.598 173.158C724.598 177.01 723.32 180.034 720.764 182.23C718.244 184.39 714.734 185.47 710.234 185.47H693.278ZM700.622 178.99H710.99C712.898 178.99 714.41 178.468 715.526 177.424C716.678 176.344 717.254 174.922 717.254 173.158C717.254 171.394 716.678 169.972 715.526 168.892C714.41 167.812 712.898 167.272 710.99 167.272H700.622V178.99ZM700.622 160.846H710.612C712.124 160.846 713.33 160.414 714.23 159.55C715.13 158.65 715.58 157.498 715.58 156.094C715.58 154.69 715.13 153.574 714.23 152.746C713.33 151.918 712.124 151.504 710.612 151.504H700.622V160.846ZM744.384 186.118C741.504 186.118 738.876 185.452 736.5 184.12C734.16 182.788 732.288 180.97 730.884 178.666C729.516 176.362 728.832 173.734 728.832 170.782C728.832 167.83 729.516 165.202 730.884 162.898C732.288 160.594 734.16 158.776 736.5 157.444C738.84 156.112 741.468 155.446 744.384 155.446C747.264 155.446 749.874 156.112 752.214 157.444C754.554 158.776 756.408 160.594 757.776 162.898C759.18 165.166 759.882 167.794 759.882 170.782C759.882 173.734 759.18 176.362 757.776 178.666C756.372 180.97 754.5 182.788 752.16 184.12C749.82 185.452 747.228 186.118 744.384 186.118ZM744.384 179.638C745.968 179.638 747.354 179.26 748.542 178.504C749.766 177.748 750.72 176.704 751.404 175.372C752.124 174.004 752.484 172.474 752.484 170.782C752.484 169.054 752.124 167.542 751.404 166.246C750.72 164.914 749.766 163.87 748.542 163.114C747.354 162.322 745.968 161.926 744.384 161.926C742.764 161.926 741.342 162.322 740.118 163.114C738.894 163.87 737.922 164.914 737.202 166.246C736.518 167.542 736.176 169.054 736.176 170.782C736.176 172.474 736.518 174.004 737.202 175.372C737.922 176.704 738.894 177.748 740.118 178.504C741.342 179.26 742.764 179.638 744.384 179.638ZM779.611 186.118C776.731 186.118 774.103 185.452 771.727 184.12C769.387 182.788 767.515 180.97 766.111 178.666C764.743 176.362 764.059 173.734 764.059 170.782C764.059 167.83 764.743 165.202 766.111 162.898C767.515 160.594 769.387 158.776 771.727 157.444C774.067 156.112 776.695 155.446 779.611 155.446C782.491 155.446 785.101 156.112 787.441 157.444C789.781 158.776 791.635 160.594 793.003 162.898C794.407 165.166 795.109 167.794 795.109 170.782C795.109 173.734 794.407 176.362 793.003 178.666C791.599 180.97 789.727 182.788 787.387 184.12C785.047 185.452 782.455 186.118 779.611 186.118ZM779.611 179.638C781.195 179.638 782.581 179.26 783.769 178.504C784.993 177.748 785.947 176.704 786.631 175.372C787.351 174.004 787.711 172.474 787.711 170.782C787.711 169.054 787.351 167.542 786.631 166.246C785.947 164.914 784.993 163.87 783.769 163.114C782.581 162.322 781.195 161.926 779.611 161.926C777.991 161.926 776.569 162.322 775.345 163.114C774.121 163.87 773.149 164.914 772.429 166.246C771.745 167.542 771.403 169.054 771.403 170.782C771.403 172.474 771.745 174.004 772.429 175.372C773.149 176.704 774.121 177.748 775.345 178.504C776.569 179.26 777.991 179.638 779.611 179.638ZM800.473 185.47V144.592H807.547V171.376L804.847 170.566L818.671 156.094H827.473L816.619 167.92L827.689 185.47H819.589L809.977 170.242L814.189 169.378L805.333 178.882L807.547 174.562V185.47H800.473ZM844.801 197.35C844.009 197.35 843.235 197.278 842.479 197.134C841.723 197.026 841.039 196.81 840.427 196.486V190.6C840.895 190.708 841.453 190.816 842.101 190.924C842.785 191.032 843.415 191.086 843.991 191.086C845.611 191.086 846.781 190.708 847.501 189.952C848.257 189.232 848.923 188.26 849.499 187.036L851.443 182.5L851.335 188.44L838.537 156.094H846.151L855.115 179.962H852.415L861.325 156.094H868.993L856.195 188.44C855.439 190.312 854.521 191.914 853.441 193.246C852.361 194.578 851.101 195.586 849.661 196.27C848.257 196.99 846.637 197.35 844.801 197.35ZM886.714 186.118C883.834 186.118 881.206 185.452 878.83 184.12C876.49 182.788 874.618 180.97 873.214 178.666C871.846 176.362 871.162 173.734 871.162 170.782C871.162 167.83 871.846 165.202 873.214 162.898C874.618 160.594 876.49 158.776 878.83 157.444C881.17 156.112 883.798 155.446 886.714 155.446C889.594 155.446 892.204 156.112 894.544 157.444C896.884 158.776 898.738 160.594 900.106 162.898C901.51 165.166 902.212 167.794 902.212 170.782C902.212 173.734 901.51 176.362 900.106 178.666C898.702 180.97 896.83 182.788 894.49 184.12C892.15 185.452 889.558 186.118 886.714 186.118ZM886.714 179.638C888.298 179.638 889.684 179.26 890.872 178.504C892.096 177.748 893.05 176.704 893.734 175.372C894.454 174.004 894.814 172.474 894.814 170.782C894.814 169.054 894.454 167.542 893.734 166.246C893.05 164.914 892.096 163.87 890.872 163.114C889.684 162.322 888.298 161.926 886.714 161.926C885.094 161.926 883.672 162.322 882.448 163.114C881.224 163.87 880.252 164.914 879.532 166.246C878.848 167.542 878.506 169.054 878.506 170.782C878.506 172.474 878.848 174.004 879.532 175.372C880.252 176.704 881.224 177.748 882.448 178.504C883.672 179.26 885.094 179.638 886.714 179.638ZM918.053 186.118C915.785 186.118 913.805 185.614 912.113 184.606C910.457 183.598 909.179 182.194 908.279 180.394C907.415 178.594 906.983 176.488 906.983 174.076V156.094H914.057V173.482C914.057 174.706 914.291 175.786 914.759 176.722C915.263 177.622 915.965 178.342 916.865 178.882C917.801 179.386 918.845 179.638 919.997 179.638C921.149 179.638 922.175 179.386 923.075 178.882C923.975 178.342 924.677 177.604 925.181 176.668C925.685 175.732 925.937 174.616 925.937 173.32V156.094H933.011V185.47H926.315V179.692L926.909 180.718C926.225 182.518 925.091 183.868 923.507 184.768C921.959 185.668 920.141 186.118 918.053 186.118ZM939.587 185.47V156.094H946.229V162.628L945.689 161.656C946.373 159.46 947.435 157.93 948.875 157.066C950.351 156.202 952.115 155.77 954.167 155.77H955.895V162.034H953.357C951.341 162.034 949.721 162.664 948.497 163.924C947.273 165.148 946.661 166.876 946.661 169.108V185.47H939.587ZM969.382 185.47V156.094H976.024V162.898L975.268 161.764C975.808 159.64 976.888 158.056 978.508 157.012C980.128 155.968 982.036 155.446 984.232 155.446C986.644 155.446 988.768 156.076 990.604 157.336C992.44 158.596 993.628 160.252 994.168 162.304L992.17 162.466C993.07 160.126 994.42 158.38 996.22 157.228C998.02 156.04 1000.09 155.446 1002.43 155.446C1004.52 155.446 1006.37 155.914 1007.99 156.85C1009.65 157.786 1010.94 159.1 1011.88 160.792C1012.82 162.448 1013.28 164.374 1013.28 166.57V185.47H1006.21V168.244C1006.21 166.948 1005.98 165.832 1005.51 164.896C1005.04 163.96 1004.39 163.24 1003.56 162.736C1002.74 162.196 1001.73 161.926 1000.54 161.926C999.424 161.926 998.434 162.196 997.57 162.736C996.706 163.24 996.04 163.96 995.572 164.896C995.104 165.832 994.87 166.948 994.87 168.244V185.47H987.796V168.244C987.796 166.948 987.562 165.832 987.094 164.896C986.626 163.96 985.96 163.24 985.096 162.736C984.268 162.196 983.278 161.926 982.126 161.926C981.01 161.926 980.02 162.196 979.156 162.736C978.292 163.24 977.626 163.96 977.158 164.896C976.69 165.832 976.456 166.948 976.456 168.244V185.47H969.382ZM1033.2 186.118C1030.18 186.118 1027.53 185.434 1025.26 184.066C1022.99 182.698 1021.23 180.844 1019.97 178.504C1018.71 176.164 1018.08 173.572 1018.08 170.728C1018.08 167.776 1018.71 165.166 1019.97 162.898C1021.27 160.594 1023.01 158.776 1025.21 157.444C1027.44 156.112 1029.92 155.446 1032.66 155.446C1034.96 155.446 1036.98 155.824 1038.71 156.58C1040.47 157.336 1041.97 158.38 1043.19 159.712C1044.41 161.044 1045.35 162.574 1046 164.302C1046.65 165.994 1046.97 167.83 1046.97 169.81C1046.97 170.314 1046.93 170.836 1046.86 171.376C1046.83 171.916 1046.74 172.384 1046.59 172.78H1023.91V167.38H1042.6L1039.25 169.918C1039.57 168.262 1039.48 166.786 1038.98 165.49C1038.51 164.194 1037.72 163.168 1036.6 162.412C1035.52 161.656 1034.21 161.278 1032.66 161.278C1031.18 161.278 1029.87 161.656 1028.72 162.412C1027.57 163.132 1026.68 164.212 1026.07 165.652C1025.5 167.056 1025.28 168.766 1025.42 170.782C1025.28 172.582 1025.51 174.184 1026.13 175.588C1026.77 176.956 1027.71 178.018 1028.93 178.774C1030.19 179.53 1031.63 179.908 1033.25 179.908C1034.87 179.908 1036.24 179.566 1037.36 178.882C1038.51 178.198 1039.41 177.28 1040.06 176.128L1045.78 178.936C1045.21 180.34 1044.31 181.582 1043.08 182.662C1041.86 183.742 1040.4 184.588 1038.71 185.2C1037.05 185.812 1035.22 186.118 1033.2 186.118ZM1065.99 186.118C1063.15 186.118 1060.61 185.452 1058.38 184.12C1056.15 182.752 1054.38 180.898 1053.09 178.558C1051.79 176.218 1051.14 173.626 1051.14 170.782C1051.14 167.902 1051.79 165.31 1053.09 163.006C1054.38 160.702 1056.15 158.866 1058.38 157.498C1060.65 156.13 1063.17 155.446 1065.94 155.446C1068.17 155.446 1070.15 155.896 1071.88 156.796C1073.64 157.66 1075.03 158.884 1076.04 160.468L1074.96 161.926V144.592H1082.03V185.47H1075.34V179.8L1076.09 181.204C1075.08 182.788 1073.68 184.012 1071.88 184.876C1070.08 185.704 1068.12 186.118 1065.99 186.118ZM1066.75 179.638C1068.37 179.638 1069.79 179.26 1071.02 178.504C1072.24 177.748 1073.19 176.704 1073.88 175.372C1074.6 174.04 1074.96 172.51 1074.96 170.782C1074.96 169.09 1074.6 167.578 1073.88 166.246C1073.19 164.878 1072.24 163.816 1071.02 163.06C1069.79 162.304 1068.37 161.926 1066.75 161.926C1065.17 161.926 1063.74 162.322 1062.48 163.114C1061.22 163.87 1060.23 164.914 1059.51 166.246C1058.83 167.542 1058.49 169.054 1058.49 170.782C1058.49 172.51 1058.83 174.04 1059.51 175.372C1060.23 176.704 1061.22 177.748 1062.48 178.504C1063.74 179.26 1065.17 179.638 1066.75 179.638ZM1088.61 185.47V156.094H1095.69V185.47H1088.61ZM1088.61 152.8V145.24H1095.69V152.8H1088.61ZM1116.37 186.118C1113.45 186.118 1110.82 185.452 1108.48 184.12C1106.18 182.752 1104.36 180.916 1103.03 178.612C1101.7 176.272 1101.03 173.644 1101.03 170.728C1101.03 167.812 1101.7 165.202 1103.03 162.898C1104.36 160.594 1106.18 158.776 1108.48 157.444C1110.82 156.112 1113.45 155.446 1116.37 155.446C1118.46 155.446 1120.4 155.824 1122.2 156.58C1124 157.3 1125.55 158.308 1126.84 159.604C1128.18 160.864 1129.13 162.376 1129.71 164.14L1123.5 166.84C1122.96 165.364 1122.04 164.176 1120.74 163.276C1119.48 162.376 1118.02 161.926 1116.37 161.926C1114.82 161.926 1113.43 162.304 1112.21 163.06C1111.02 163.816 1110.09 164.86 1109.4 166.192C1108.72 167.524 1108.38 169.054 1108.38 170.782C1108.38 172.51 1108.72 174.04 1109.4 175.372C1110.09 176.704 1111.02 177.748 1112.21 178.504C1113.43 179.26 1114.82 179.638 1116.37 179.638C1118.06 179.638 1119.54 179.188 1120.8 178.288C1122.06 177.388 1122.96 176.182 1123.5 174.67L1129.71 177.478C1129.13 179.134 1128.19 180.628 1126.9 181.96C1125.6 183.256 1124.05 184.282 1122.25 185.038C1120.45 185.758 1118.49 186.118 1116.37 186.118ZM1143.88 186.118C1141.83 186.118 1140.04 185.776 1138.53 185.092C1137.02 184.408 1135.85 183.436 1135.02 182.176C1134.19 180.88 1133.78 179.386 1133.78 177.694C1133.78 176.074 1134.14 174.634 1134.86 173.374C1135.58 172.078 1136.7 170.998 1138.21 170.134C1139.72 169.27 1141.63 168.658 1143.93 168.298L1153.54 166.732V172.132L1145.28 173.536C1143.88 173.788 1142.83 174.238 1142.15 174.886C1141.47 175.534 1141.12 176.38 1141.12 177.424C1141.12 178.432 1141.5 179.242 1142.26 179.854C1143.05 180.43 1144.02 180.718 1145.17 180.718C1146.65 180.718 1147.95 180.412 1149.06 179.8C1150.21 179.152 1151.1 178.27 1151.71 177.154C1152.36 176.038 1152.68 174.814 1152.68 173.482V165.922C1152.68 164.662 1152.18 163.618 1151.17 162.79C1150.2 161.926 1148.9 161.494 1147.28 161.494C1145.77 161.494 1144.42 161.908 1143.23 162.736C1142.08 163.528 1141.23 164.59 1140.69 165.922L1134.91 163.114C1135.49 161.566 1136.39 160.234 1137.61 159.118C1138.87 157.966 1140.35 157.066 1142.04 156.418C1143.73 155.77 1145.57 155.446 1147.55 155.446C1149.96 155.446 1152.09 155.896 1153.92 156.796C1155.76 157.66 1157.18 158.884 1158.19 160.468C1159.23 162.016 1159.75 163.834 1159.75 165.922V185.47H1153.06V180.448L1154.57 180.34C1153.81 181.6 1152.91 182.662 1151.87 183.526C1150.83 184.354 1149.64 185.002 1148.31 185.47C1146.97 185.902 1145.5 186.118 1143.88 186.118ZM1166.29 185.47V144.592H1173.37V185.47H1166.29Z" fill="white"/>
<path d="M685.176 252.098C683.124 252.098 681.342 251.756 679.83 251.072C678.318 250.388 677.148 249.416 676.32 248.156C675.492 246.86 675.078 245.366 675.078 243.674C675.078 242.054 675.438 240.614 676.158 239.354C676.878 238.058 677.994 236.978 679.506 236.114C681.018 235.25 682.926 234.638 685.23 234.278L694.842 232.712V238.112L686.58 239.516C685.176 239.768 684.132 240.218 683.448 240.866C682.764 241.514 682.422 242.36 682.422 243.404C682.422 244.412 682.8 245.222 683.556 245.834C684.348 246.41 685.32 246.698 686.472 246.698C687.948 246.698 689.244 246.392 690.36 245.78C691.512 245.132 692.394 244.25 693.006 243.134C693.654 242.018 693.978 240.794 693.978 239.462V231.902C693.978 230.642 693.474 229.598 692.466 228.77C691.494 227.906 690.198 227.474 688.578 227.474C687.066 227.474 685.716 227.888 684.528 228.716C683.376 229.508 682.53 230.57 681.99 231.902L676.212 229.094C676.788 227.546 677.688 226.214 678.912 225.098C680.172 223.946 681.648 223.046 683.34 222.398C685.032 221.75 686.868 221.426 688.848 221.426C691.26 221.426 693.384 221.876 695.22 222.776C697.056 223.64 698.478 224.864 699.486 226.448C700.53 227.996 701.052 229.814 701.052 231.902V251.45H694.356V246.428L695.868 246.32C695.112 247.58 694.212 248.642 693.168 249.506C692.124 250.334 690.936 250.982 689.604 251.45C688.272 251.882 686.796 252.098 685.176 252.098ZM707.59 262.25V222.074H714.232V227.906L713.584 226.448C714.592 224.864 715.96 223.64 717.688 222.776C719.416 221.876 721.414 221.426 723.682 221.426C726.454 221.426 728.956 222.11 731.188 223.478C733.42 224.846 735.184 226.682 736.48 228.986C737.812 231.29 738.478 233.882 738.478 236.762C738.478 239.606 737.83 242.198 736.534 244.538C735.238 246.878 733.474 248.732 731.242 250.1C729.01 251.432 726.472 252.098 723.628 252.098C721.504 252.098 719.542 251.684 717.742 250.856C715.978 249.992 714.574 248.768 713.53 247.184L714.664 245.78V262.25H707.59ZM722.818 245.618C724.438 245.618 725.878 245.24 727.138 244.484C728.398 243.728 729.37 242.684 730.054 241.352C730.774 240.02 731.134 238.49 731.134 236.762C731.134 235.034 730.774 233.522 730.054 232.226C729.37 230.894 728.398 229.85 727.138 229.094C725.878 228.302 724.438 227.906 722.818 227.906C721.27 227.906 719.866 228.284 718.606 229.04C717.382 229.796 716.41 230.858 715.69 232.226C715.006 233.558 714.664 235.07 714.664 236.762C714.664 238.49 715.006 240.02 715.69 241.352C716.41 242.684 717.382 243.728 718.606 244.484C719.866 245.24 721.27 245.618 722.818 245.618ZM743.871 262.25V222.074H750.513V227.906L749.865 226.448C750.873 224.864 752.241 223.64 753.969 222.776C755.697 221.876 757.695 221.426 759.963 221.426C762.735 221.426 765.237 222.11 767.469 223.478C769.701 224.846 771.465 226.682 772.761 228.986C774.093 231.29 774.759 233.882 774.759 236.762C774.759 239.606 774.111 242.198 772.815 244.538C771.519 246.878 769.755 248.732 767.523 250.1C765.291 251.432 762.753 252.098 759.909 252.098C757.785 252.098 755.823 251.684 754.023 250.856C752.259 249.992 750.855 248.768 749.811 247.184L750.945 245.78V262.25H743.871ZM759.099 245.618C760.719 245.618 762.159 245.24 763.419 244.484C764.679 243.728 765.651 242.684 766.335 241.352C767.055 240.02 767.415 238.49 767.415 236.762C767.415 235.034 767.055 233.522 766.335 232.226C765.651 230.894 764.679 229.85 763.419 229.094C762.159 228.302 760.719 227.906 759.099 227.906C757.551 227.906 756.147 228.284 754.887 229.04C753.663 229.796 752.691 230.858 751.971 232.226C751.287 233.558 750.945 235.07 750.945 236.762C750.945 238.49 751.287 240.02 751.971 241.352C752.691 242.684 753.663 243.728 754.887 244.484C756.147 245.24 757.551 245.618 759.099 245.618ZM794.516 252.098C791.636 252.098 789.008 251.432 786.632 250.1C784.292 248.768 782.42 246.95 781.016 244.646C779.648 242.342 778.964 239.714 778.964 236.762C778.964 233.81 779.648 231.182 781.016 228.878C782.42 226.574 784.292 224.756 786.632 223.424C788.972 222.092 791.6 221.426 794.516 221.426C797.396 221.426 800.006 222.092 802.346 223.424C804.686 224.756 806.54 226.574 807.908 228.878C809.312 231.146 810.014 233.774 810.014 236.762C810.014 239.714 809.312 242.342 807.908 244.646C806.504 246.95 804.632 248.768 802.292 250.1C799.952 251.432 797.36 252.098 794.516 252.098ZM794.516 245.618C796.1 245.618 797.486 245.24 798.674 244.484C799.898 243.728 800.852 242.684 801.536 241.352C802.256 239.984 802.616 238.454 802.616 236.762C802.616 235.034 802.256 233.522 801.536 232.226C800.852 230.894 799.898 229.85 798.674 229.094C797.486 228.302 796.1 227.906 794.516 227.906C792.896 227.906 791.474 228.302 790.25 229.094C789.026 229.85 788.054 230.894 787.334 232.226C786.65 233.522 786.308 235.034 786.308 236.762C786.308 238.454 786.65 239.984 787.334 241.352C788.054 242.684 789.026 243.728 790.25 244.484C791.474 245.24 792.896 245.618 794.516 245.618ZM815.379 251.45V222.074H822.453V251.45H815.379ZM815.379 218.78V211.22H822.453V218.78H815.379ZM828.984 251.45V222.074H835.626V227.852L835.086 226.826C835.77 225.062 836.886 223.73 838.434 222.83C840.018 221.894 841.854 221.426 843.942 221.426C846.102 221.426 848.01 221.894 849.666 222.83C851.358 223.766 852.672 225.08 853.608 226.772C854.544 228.428 855.012 230.354 855.012 232.55V251.45H847.938V234.224C847.938 232.928 847.686 231.812 847.182 230.876C846.678 229.94 845.976 229.22 845.076 228.716C844.212 228.176 843.186 227.906 841.998 227.906C840.846 227.906 839.82 228.176 838.92 228.716C838.02 229.22 837.318 229.94 836.814 230.876C836.31 231.812 836.058 232.928 836.058 234.224V251.45H828.984ZM874.386 251.774C871.074 251.774 868.5 250.874 866.664 249.074C864.864 247.238 863.964 244.664 863.964 241.352V228.392H858.888V222.074H859.428C860.868 222.074 861.984 221.696 862.776 220.94C863.568 220.184 863.964 219.086 863.964 217.646V215.378H871.038V222.074H877.788V228.392H871.038V240.974C871.038 241.946 871.2 242.774 871.524 243.458C871.884 244.142 872.424 244.664 873.144 245.024C873.9 245.384 874.854 245.564 876.006 245.564C876.258 245.564 876.546 245.546 876.87 245.51C877.23 245.474 877.572 245.438 877.896 245.402V251.45C877.392 251.522 876.816 251.594 876.168 251.666C875.52 251.738 874.926 251.774 874.386 251.774ZM883.301 251.45V222.074H889.943V228.878L889.187 227.744C889.727 225.62 890.807 224.036 892.427 222.992C894.047 221.948 895.955 221.426 898.151 221.426C900.563 221.426 902.687 222.056 904.523 223.316C906.359 224.576 907.547 226.232 908.087 228.284L906.089 228.446C906.989 226.106 908.339 224.36 910.139 223.208C911.939 222.02 914.009 221.426 916.349 221.426C918.437 221.426 920.291 221.894 921.911 222.83C923.567 223.766 924.863 225.08 925.799 226.772C926.735 228.428 927.203 230.354 927.203 232.55V251.45H920.129V234.224C920.129 232.928 919.895 231.812 919.427 230.876C918.959 229.94 918.311 229.22 917.483 228.716C916.655 228.176 915.647 227.906 914.459 227.906C913.343 227.906 912.353 228.176 911.489 228.716C910.625 229.22 909.959 229.94 909.491 230.876C909.023 231.812 908.789 232.928 908.789 234.224V251.45H901.715V234.224C901.715 232.928 901.481 231.812 901.013 230.876C900.545 229.94 899.879 229.22 899.015 228.716C898.187 228.176 897.197 227.906 896.045 227.906C894.929 227.906 893.939 228.176 893.075 228.716C892.211 229.22 891.545 229.94 891.077 230.876C890.609 231.812 890.375 232.928 890.375 234.224V251.45H883.301ZM947.119 252.098C944.095 252.098 941.449 251.414 939.181 250.046C936.913 248.678 935.149 246.824 933.889 244.484C932.629 242.144 931.999 239.552 931.999 236.708C931.999 233.756 932.629 231.146 933.889 228.878C935.185 226.574 936.931 224.756 939.127 223.424C941.359 222.092 943.843 221.426 946.579 221.426C948.883 221.426 950.899 221.804 952.627 222.56C954.391 223.316 955.885 224.36 957.109 225.692C958.333 227.024 959.269 228.554 959.917 230.282C960.565 231.974 960.889 233.81 960.889 235.79C960.889 236.294 960.853 236.816 960.781 237.356C960.745 237.896 960.655 238.364 960.511 238.76H937.831V233.36H956.515L953.167 235.898C953.491 234.242 953.401 232.766 952.897 231.47C952.429 230.174 951.637 229.148 950.521 228.392C949.441 227.636 948.127 227.258 946.579 227.258C945.103 227.258 943.789 227.636 942.637 228.392C941.485 229.112 940.603 230.192 939.991 231.632C939.415 233.036 939.199 234.746 939.343 236.762C939.199 238.562 939.433 240.164 940.045 241.568C940.693 242.936 941.629 243.998 942.853 244.754C944.113 245.51 945.553 245.888 947.173 245.888C948.793 245.888 950.161 245.546 951.277 244.862C952.429 244.178 953.329 243.26 953.977 242.108L959.701 244.916C959.125 246.32 958.225 247.562 957.001 248.642C955.777 249.722 954.319 250.568 952.627 251.18C950.971 251.792 949.135 252.098 947.119 252.098ZM966.252 251.45V222.074H972.894V227.852L972.354 226.826C973.038 225.062 974.154 223.73 975.702 222.83C977.286 221.894 979.122 221.426 981.21 221.426C983.37 221.426 985.278 221.894 986.934 222.83C988.626 223.766 989.94 225.08 990.876 226.772C991.812 228.428 992.28 230.354 992.28 232.55V251.45H985.206V234.224C985.206 232.928 984.954 231.812 984.45 230.876C983.946 229.94 983.244 229.22 982.344 228.716C981.48 228.176 980.454 227.906 979.266 227.906C978.114 227.906 977.088 228.176 976.188 228.716C975.288 229.22 974.586 229.94 974.082 230.876C973.578 231.812 973.326 232.928 973.326 234.224V251.45H966.252ZM1011.65 251.774C1008.34 251.774 1005.77 250.874 1003.93 249.074C1002.13 247.238 1001.23 244.664 1001.23 241.352V228.392H996.156V222.074H996.696C998.136 222.074 999.252 221.696 1000.04 220.94C1000.84 220.184 1001.23 219.086 1001.23 217.646V215.378H1008.31V222.074H1015.06V228.392H1008.31V240.974C1008.31 241.946 1008.47 242.774 1008.79 243.458C1009.15 244.142 1009.69 244.664 1010.41 245.024C1011.17 245.384 1012.12 245.564 1013.27 245.564C1013.53 245.564 1013.81 245.546 1014.14 245.51C1014.5 245.474 1014.84 245.438 1015.16 245.402V251.45C1014.66 251.522 1014.08 251.594 1013.44 251.666C1012.79 251.738 1012.19 251.774 1011.65 251.774ZM1043.56 251.774C1040.25 251.774 1037.67 250.874 1035.84 249.074C1034.04 247.238 1033.14 244.664 1033.14 241.352V228.392H1028.06V222.074H1028.6C1030.04 222.074 1031.16 221.696 1031.95 220.94C1032.74 220.184 1033.14 219.086 1033.14 217.646V215.378H1040.21V222.074H1046.96V228.392H1040.21V240.974C1040.21 241.946 1040.37 242.774 1040.7 243.458C1041.06 244.142 1041.6 244.664 1042.32 245.024C1043.07 245.384 1044.03 245.564 1045.18 245.564C1045.43 245.564 1045.72 245.546 1046.04 245.51C1046.4 245.474 1046.74 245.438 1047.07 245.402V251.45C1046.56 251.522 1045.99 251.594 1045.34 251.666C1044.69 251.738 1044.1 251.774 1043.56 251.774ZM1066.57 252.098C1063.69 252.098 1061.06 251.432 1058.69 250.1C1056.35 248.768 1054.48 246.95 1053.07 244.646C1051.7 242.342 1051.02 239.714 1051.02 236.762C1051.02 233.81 1051.7 231.182 1053.07 228.878C1054.48 226.574 1056.35 224.756 1058.69 223.424C1061.03 222.092 1063.66 221.426 1066.57 221.426C1069.45 221.426 1072.06 222.092 1074.4 223.424C1076.74 224.756 1078.6 226.574 1079.96 228.878C1081.37 231.146 1082.07 233.774 1082.07 236.762C1082.07 239.714 1081.37 242.342 1079.96 244.646C1078.56 246.95 1076.69 248.768 1074.35 250.1C1072.01 251.432 1069.42 252.098 1066.57 252.098ZM1066.57 245.618C1068.16 245.618 1069.54 245.24 1070.73 244.484C1071.95 243.728 1072.91 242.684 1073.59 241.352C1074.31 239.984 1074.67 238.454 1074.67 236.762C1074.67 235.034 1074.31 233.522 1073.59 232.226C1072.91 230.894 1071.95 229.85 1070.73 229.094C1069.54 228.302 1068.16 227.906 1066.57 227.906C1064.95 227.906 1063.53 228.302 1062.31 229.094C1061.08 229.85 1060.11 230.894 1059.39 232.226C1058.71 233.522 1058.36 235.034 1058.36 236.762C1058.36 238.454 1058.71 239.984 1059.39 241.352C1060.11 242.684 1061.08 243.728 1062.31 244.484C1063.53 245.24 1064.95 245.618 1066.57 245.618ZM1101.1 252.098C1098.25 252.098 1095.72 251.432 1093.48 250.1C1091.25 248.732 1089.49 246.878 1088.19 244.538C1086.9 242.198 1086.25 239.606 1086.25 236.762C1086.25 233.882 1086.9 231.29 1088.19 228.986C1089.49 226.682 1091.25 224.846 1093.48 223.478C1095.75 222.11 1098.27 221.426 1101.04 221.426C1103.28 221.426 1105.26 221.876 1106.98 222.776C1108.75 223.64 1110.13 224.864 1111.14 226.448L1110.06 227.906V210.572H1117.14V251.45H1110.44V245.78L1111.2 247.184C1110.19 248.768 1108.78 249.992 1106.98 250.856C1105.18 251.684 1103.22 252.098 1101.1 252.098ZM1101.85 245.618C1103.47 245.618 1104.9 245.24 1106.12 244.484C1107.34 243.728 1108.3 242.684 1108.98 241.352C1109.7 240.02 1110.06 238.49 1110.06 236.762C1110.06 235.07 1109.7 233.558 1108.98 232.226C1108.3 230.858 1107.34 229.796 1106.12 229.04C1104.9 228.284 1103.47 227.906 1101.85 227.906C1100.27 227.906 1098.85 228.302 1097.59 229.094C1096.33 229.85 1095.34 230.894 1094.62 232.226C1093.93 233.522 1093.59 235.034 1093.59 236.762C1093.59 238.49 1093.93 240.02 1094.62 241.352C1095.34 242.684 1096.33 243.728 1097.59 244.484C1098.85 245.24 1100.27 245.618 1101.85 245.618ZM1132.63 252.098C1130.57 252.098 1128.79 251.756 1127.28 251.072C1125.77 250.388 1124.6 249.416 1123.77 248.156C1122.94 246.86 1122.53 245.366 1122.53 243.674C1122.53 242.054 1122.89 240.614 1123.61 239.354C1124.33 238.058 1125.44 236.978 1126.96 236.114C1128.47 235.25 1130.38 234.638 1132.68 234.278L1142.29 232.712V238.112L1134.03 239.516C1132.63 239.768 1131.58 240.218 1130.9 240.866C1130.21 241.514 1129.87 242.36 1129.87 243.404C1129.87 244.412 1130.25 245.222 1131.01 245.834C1131.8 246.41 1132.77 246.698 1133.92 246.698C1135.4 246.698 1136.69 246.392 1137.81 245.78C1138.96 245.132 1139.84 244.25 1140.46 243.134C1141.1 242.018 1141.43 240.794 1141.43 239.462V231.902C1141.43 230.642 1140.92 229.598 1139.92 228.77C1138.94 227.906 1137.65 227.474 1136.03 227.474C1134.52 227.474 1133.17 227.888 1131.98 228.716C1130.83 229.508 1129.98 230.57 1129.44 231.902L1123.66 229.094C1124.24 227.546 1125.14 226.214 1126.36 225.098C1127.62 223.946 1129.1 223.046 1130.79 222.398C1132.48 221.75 1134.32 221.426 1136.3 221.426C1138.71 221.426 1140.83 221.876 1142.67 222.776C1144.51 223.64 1145.93 224.864 1146.94 226.448C1147.98 227.996 1148.5 229.814 1148.5 231.902V251.45H1141.81V246.428L1143.32 246.32C1142.56 247.58 1141.66 248.642 1140.62 249.506C1139.57 250.334 1138.39 250.982 1137.05 251.45C1135.72 251.882 1134.25 252.098 1132.63 252.098ZM1158.6 263.33C1157.81 263.33 1157.04 263.258 1156.28 263.114C1155.53 263.006 1154.84 262.79 1154.23 262.466V256.58C1154.7 256.688 1155.26 256.796 1155.9 256.904C1156.59 257.012 1157.22 257.066 1157.79 257.066C1159.41 257.066 1160.58 256.688 1161.3 255.932C1162.06 255.212 1162.73 254.24 1163.3 253.016L1165.25 248.48L1165.14 254.42L1152.34 222.074H1159.95L1168.92 245.942H1166.22L1175.13 222.074H1182.8L1170 254.42C1169.24 256.292 1168.32 257.894 1167.24 259.226C1166.16 260.558 1164.9 261.566 1163.46 262.25C1162.06 262.97 1160.44 263.33 1158.6 263.33Z" fill="white"/>
<rect x="656.89" y="286.939" width="286.59" height="72" rx="36" fill="#13182F"/>
<g clip-path="url(#clip1_1_1111)">
<path d="M699.714 324.007C700.431 325.488 701.628 326.683 703.111 327.396C703.22 327.448 703.341 327.47 703.462 327.461C703.583 327.452 703.699 327.412 703.799 327.344L705.977 325.889C706.073 325.824 706.185 325.784 706.3 325.773C706.416 325.763 706.533 325.781 706.639 325.828L710.716 327.579C710.856 327.637 710.972 327.739 711.048 327.87C711.123 328.001 711.154 328.152 711.134 328.302C711.005 329.311 710.513 330.238 709.75 330.909C708.986 331.581 708.005 331.952 706.988 331.952C703.845 331.952 700.832 330.704 698.61 328.482C696.388 326.26 695.14 323.247 695.14 320.105C695.14 319.088 695.511 318.106 696.183 317.343C696.855 316.579 697.782 316.087 698.79 315.958C698.94 315.939 699.092 315.969 699.222 316.045C699.353 316.12 699.455 316.237 699.513 316.376L701.264 320.462C701.31 320.567 701.329 320.681 701.32 320.795C701.311 320.909 701.274 321.019 701.212 321.115L699.757 323.328C699.692 323.428 699.654 323.543 699.647 323.662C699.639 323.781 699.662 323.9 699.714 324.007Z" fill="white"/>
</g>
<path d="M718.186 327.449V314.039H723.838C724.726 314.039 725.482 314.195 726.106 314.507C726.742 314.807 727.228 315.239 727.564 315.803C727.912 316.355 728.086 317.027 728.086 317.819C728.086 318.431 727.918 319.007 727.582 319.547C727.258 320.075 726.736 320.513 726.016 320.861V319.727C726.676 319.979 727.198 320.291 727.582 320.663C727.966 321.035 728.236 321.449 728.392 321.905C728.548 322.361 728.626 322.841 728.626 323.345C728.626 324.629 728.2 325.637 727.348 326.369C726.508 327.089 725.338 327.449 723.838 327.449H718.186ZM720.634 325.289H724.09C724.726 325.289 725.23 325.115 725.602 324.767C725.986 324.407 726.178 323.933 726.178 323.345C726.178 322.757 725.986 322.283 725.602 321.923C725.23 321.563 724.726 321.383 724.09 321.383H720.634V325.289ZM720.634 319.241H723.964C724.468 319.241 724.87 319.097 725.17 318.809C725.47 318.509 725.62 318.125 725.62 317.657C725.62 317.189 725.47 316.817 725.17 316.541C724.87 316.265 724.468 316.127 723.964 316.127H720.634V319.241ZM735.221 327.665C734.261 327.665 733.385 327.443 732.593 326.999C731.813 326.555 731.189 325.949 730.721 325.181C730.265 324.413 730.037 323.537 730.037 322.553C730.037 321.569 730.265 320.693 730.721 319.925C731.189 319.157 731.813 318.551 732.593 318.107C733.373 317.663 734.249 317.441 735.221 317.441C736.181 317.441 737.051 317.663 737.831 318.107C738.611 318.551 739.229 319.157 739.685 319.925C740.153 320.681 740.387 321.557 740.387 322.553C740.387 323.537 740.153 324.413 739.685 325.181C739.217 325.949 738.593 326.555 737.813 326.999C737.033 327.443 736.169 327.665 735.221 327.665ZM735.221 325.505C735.749 325.505 736.211 325.379 736.607 325.127C737.015 324.875 737.333 324.527 737.561 324.083C737.801 323.627 737.921 323.117 737.921 322.553C737.921 321.977 737.801 321.473 737.561 321.041C737.333 320.597 737.015 320.249 736.607 319.997C736.211 319.733 735.749 319.601 735.221 319.601C734.681 319.601 734.207 319.733 733.799 319.997C733.391 320.249 733.067 320.597 732.827 321.041C732.599 321.473 732.485 321.977 732.485 322.553C732.485 323.117 732.599 323.627 732.827 324.083C733.067 324.527 733.391 324.875 733.799 325.127C734.207 325.379 734.681 325.505 735.221 325.505ZM746.964 327.665C746.004 327.665 745.128 327.443 744.336 326.999C743.556 326.555 742.932 325.949 742.464 325.181C742.008 324.413 741.78 323.537 741.78 322.553C741.78 321.569 742.008 320.693 742.464 319.925C742.932 319.157 743.556 318.551 744.336 318.107C745.116 317.663 745.992 317.441 746.964 317.441C747.924 317.441 748.794 317.663 749.574 318.107C750.354 318.551 750.972 319.157 751.428 319.925C751.896 320.681 752.13 321.557 752.13 322.553C752.13 323.537 751.896 324.413 751.428 325.181C750.96 325.949 750.336 326.555 749.556 326.999C748.776 327.443 747.912 327.665 746.964 327.665ZM746.964 325.505C747.492 325.505 747.954 325.379 748.35 325.127C748.758 324.875 749.076 324.527 749.304 324.083C749.544 323.627 749.664 323.117 749.664 322.553C749.664 321.977 749.544 321.473 749.304 321.041C749.076 320.597 748.758 320.249 748.35 319.997C747.954 319.733 747.492 319.601 746.964 319.601C746.424 319.601 745.95 319.733 745.542 319.997C745.134 320.249 744.81 320.597 744.57 321.041C744.342 321.473 744.228 321.977 744.228 322.553C744.228 323.117 744.342 323.627 744.57 324.083C744.81 324.527 745.134 324.875 745.542 325.127C745.95 325.379 746.424 325.505 746.964 325.505ZM753.918 327.449V313.823H756.276V322.751L755.376 322.481L759.984 317.657H762.918L759.3 321.599L762.99 327.449H760.29L757.086 322.373L758.49 322.085L755.538 325.253L756.276 323.813V327.449H753.918ZM770.476 327.665C769.792 327.665 769.198 327.551 768.694 327.323C768.19 327.095 767.8 326.771 767.524 326.351C767.248 325.919 767.11 325.421 767.11 324.857C767.11 324.317 767.23 323.837 767.47 323.417C767.71 322.985 768.082 322.625 768.586 322.337C769.09 322.049 769.726 321.845 770.494 321.725L773.698 321.203V323.003L770.944 323.471C770.476 323.555 770.128 323.705 769.9 323.921C769.672 324.137 769.558 324.419 769.558 324.767C769.558 325.103 769.684 325.373 769.936 325.577C770.2 325.769 770.524 325.865 770.908 325.865C771.4 325.865 771.832 325.763 772.204 325.559C772.588 325.343 772.882 325.049 773.086 324.677C773.302 324.305 773.41 323.897 773.41 323.453V320.933C773.41 320.513 773.242 320.165 772.906 319.889C772.582 319.601 772.15 319.457 771.61 319.457C771.106 319.457 770.656 319.595 770.26 319.871C769.876 320.135 769.594 320.489 769.414 320.933L767.488 319.997C767.68 319.481 767.98 319.037 768.388 318.665C768.808 318.281 769.3 317.981 769.864 317.765C770.428 317.549 771.04 317.441 771.7 317.441C772.504 317.441 773.212 317.591 773.824 317.891C774.436 318.179 774.91 318.587 775.246 319.115C775.594 319.631 775.768 320.237 775.768 320.933V327.449H773.536V325.775L774.04 325.739C773.788 326.159 773.488 326.513 773.14 326.801C772.792 327.077 772.396 327.293 771.952 327.449C771.508 327.593 771.016 327.665 770.476 327.665ZM777.947 327.449V317.657H780.161V319.583L779.981 319.241C780.209 318.653 780.581 318.209 781.097 317.909C781.625 317.597 782.237 317.441 782.933 317.441C783.653 317.441 784.289 317.597 784.841 317.909C785.405 318.221 785.843 318.659 786.155 319.223C786.467 319.775 786.623 320.417 786.623 321.149V327.449H784.265V321.707C784.265 321.275 784.181 320.903 784.013 320.591C783.845 320.279 783.611 320.039 783.311 319.871C783.023 319.691 782.681 319.601 782.285 319.601C781.901 319.601 781.559 319.691 781.259 319.871C780.959 320.039 780.725 320.279 780.557 320.591C780.389 320.903 780.305 321.275 780.305 321.707V327.449H777.947ZM794.786 327.665C794.102 327.665 793.508 327.551 793.004 327.323C792.5 327.095 792.11 326.771 791.834 326.351C791.558 325.919 791.42 325.421 791.42 324.857C791.42 324.317 791.54 323.837 791.78 323.417C792.02 322.985 792.392 322.625 792.896 322.337C793.4 322.049 794.036 321.845 794.804 321.725L798.008 321.203V323.003L795.254 323.471C794.786 323.555 794.438 323.705 794.21 323.921C793.982 324.137 793.868 324.419 793.868 324.767C793.868 325.103 793.994 325.373 794.246 325.577C794.51 325.769 794.834 325.865 795.218 325.865C795.71 325.865 796.142 325.763 796.514 325.559C796.898 325.343 797.192 325.049 797.396 324.677C797.612 324.305 797.72 323.897 797.72 323.453V320.933C797.72 320.513 797.552 320.165 797.216 319.889C796.892 319.601 796.46 319.457 795.92 319.457C795.416 319.457 794.966 319.595 794.57 319.871C794.186 320.135 793.904 320.489 793.724 320.933L791.798 319.997C791.99 319.481 792.29 319.037 792.698 318.665C793.118 318.281 793.61 317.981 794.174 317.765C794.738 317.549 795.35 317.441 796.01 317.441C796.814 317.441 797.522 317.591 798.134 317.891C798.746 318.179 799.22 318.587 799.556 319.115C799.904 319.631 800.078 320.237 800.078 320.933V327.449H797.846V325.775L798.35 325.739C798.098 326.159 797.798 326.513 797.45 326.801C797.102 327.077 796.706 327.293 796.262 327.449C795.818 327.593 795.326 327.665 794.786 327.665ZM802.258 331.049V317.657H804.472V319.601L804.256 319.115C804.592 318.587 805.048 318.179 805.624 317.891C806.2 317.591 806.866 317.441 807.622 317.441C808.546 317.441 809.38 317.669 810.124 318.125C810.868 318.581 811.456 319.193 811.888 319.961C812.332 320.729 812.554 321.593 812.554 322.553C812.554 323.501 812.338 324.365 811.906 325.145C811.474 325.925 810.886 326.543 810.142 326.999C809.398 327.443 808.552 327.665 807.604 327.665C806.896 327.665 806.242 327.527 805.642 327.251C805.054 326.963 804.586 326.555 804.238 326.027L804.616 325.559V331.049H802.258ZM807.334 325.505C807.874 325.505 808.354 325.379 808.774 325.127C809.194 324.875 809.518 324.527 809.746 324.083C809.986 323.639 810.106 323.129 810.106 322.553C810.106 321.977 809.986 321.473 809.746 321.041C809.518 320.597 809.194 320.249 808.774 319.997C808.354 319.733 807.874 319.601 807.334 319.601C806.818 319.601 806.35 319.727 805.93 319.979C805.522 320.231 805.198 320.585 804.958 321.041C804.73 321.485 804.616 321.989 804.616 322.553C804.616 323.129 804.73 323.639 804.958 324.083C805.198 324.527 805.522 324.875 805.93 325.127C806.35 325.379 806.818 325.505 807.334 325.505ZM814.351 331.049V317.657H816.565V319.601L816.349 319.115C816.685 318.587 817.141 318.179 817.717 317.891C818.293 317.591 818.959 317.441 819.715 317.441C820.639 317.441 821.473 317.669 822.217 318.125C822.961 318.581 823.549 319.193 823.981 319.961C824.425 320.729 824.647 321.593 824.647 322.553C824.647 323.501 824.431 324.365 823.999 325.145C823.567 325.925 822.979 326.543 822.235 326.999C821.491 327.443 820.645 327.665 819.697 327.665C818.989 327.665 818.335 327.527 817.735 327.251C817.147 326.963 816.679 326.555 816.331 326.027L816.709 325.559V331.049H814.351ZM819.427 325.505C819.967 325.505 820.447 325.379 820.867 325.127C821.287 324.875 821.611 324.527 821.839 324.083C822.079 323.639 822.199 323.129 822.199 322.553C822.199 321.977 822.079 321.473 821.839 321.041C821.611 320.597 821.287 320.249 820.867 319.997C820.447 319.733 819.967 319.601 819.427 319.601C818.911 319.601 818.443 319.727 818.023 319.979C817.615 320.231 817.291 320.585 817.051 321.041C816.823 321.485 816.709 321.989 816.709 322.553C816.709 323.129 816.823 323.639 817.051 324.083C817.291 324.527 817.615 324.875 818.023 325.127C818.443 325.379 818.911 325.505 819.427 325.505ZM831.233 327.665C830.273 327.665 829.397 327.443 828.605 326.999C827.825 326.555 827.201 325.949 826.733 325.181C826.277 324.413 826.049 323.537 826.049 322.553C826.049 321.569 826.277 320.693 826.733 319.925C827.201 319.157 827.825 318.551 828.605 318.107C829.385 317.663 830.261 317.441 831.233 317.441C832.193 317.441 833.063 317.663 833.843 318.107C834.623 318.551 835.241 319.157 835.697 319.925C836.165 320.681 836.399 321.557 836.399 322.553C836.399 323.537 836.165 324.413 835.697 325.181C835.229 325.949 834.605 326.555 833.825 326.999C833.045 327.443 832.181 327.665 831.233 327.665ZM831.233 325.505C831.761 325.505 832.223 325.379 832.619 325.127C833.027 324.875 833.345 324.527 833.573 324.083C833.813 323.627 833.933 323.117 833.933 322.553C833.933 321.977 833.813 321.473 833.573 321.041C833.345 320.597 833.027 320.249 832.619 319.997C832.223 319.733 831.761 319.601 831.233 319.601C830.693 319.601 830.219 319.733 829.811 319.997C829.403 320.249 829.079 320.597 828.839 321.041C828.611 321.473 828.497 321.977 828.497 322.553C828.497 323.117 828.611 323.627 828.839 324.083C829.079 324.527 829.403 324.875 829.811 325.127C830.219 325.379 830.693 325.505 831.233 325.505ZM838.187 327.449V317.657H840.545V327.449H838.187ZM838.187 316.559V314.039H840.545V316.559H838.187ZM842.722 327.449V317.657H844.936V319.583L844.756 319.241C844.984 318.653 845.356 318.209 845.872 317.909C846.4 317.597 847.012 317.441 847.708 317.441C848.428 317.441 849.064 317.597 849.616 317.909C850.18 318.221 850.618 318.659 850.93 319.223C851.242 319.775 851.398 320.417 851.398 321.149V327.449H849.04V321.707C849.04 321.275 848.956 320.903 848.788 320.591C848.62 320.279 848.386 320.039 848.086 319.871C847.798 319.691 847.456 319.601 847.06 319.601C846.676 319.601 846.334 319.691 846.034 319.871C845.734 320.039 845.5 320.279 845.332 320.591C845.164 320.903 845.08 321.275 845.08 321.707V327.449H842.722ZM857.856 327.557C856.752 327.557 855.894 327.257 855.282 326.657C854.682 326.045 854.382 325.187 854.382 324.083V319.763H852.69V317.657H852.87C853.35 317.657 853.722 317.531 853.986 317.279C854.25 317.027 854.382 316.661 854.382 316.181V315.425H856.74V317.657H858.99V319.763H856.74V323.957C856.74 324.281 856.794 324.557 856.902 324.785C857.022 325.013 857.202 325.187 857.442 325.307C857.694 325.427 858.012 325.487 858.396 325.487C858.48 325.487 858.576 325.481 858.684 325.469C858.804 325.457 858.918 325.445 859.026 325.433V327.449C858.858 327.473 858.666 327.497 858.45 327.521C858.234 327.545 858.036 327.557 857.856 327.557ZM860.828 327.449V317.657H863.042V319.925L862.79 319.547C862.97 318.839 863.33 318.311 863.87 317.963C864.41 317.615 865.046 317.441 865.778 317.441C866.582 317.441 867.29 317.651 867.902 318.071C868.514 318.491 868.91 319.043 869.09 319.727L868.424 319.781C868.724 319.001 869.174 318.419 869.774 318.035C870.374 317.639 871.064 317.441 871.844 317.441C872.54 317.441 873.158 317.597 873.698 317.909C874.25 318.221 874.682 318.659 874.994 319.223C875.306 319.775 875.462 320.417 875.462 321.149V327.449H873.104V321.707C873.104 321.275 873.026 320.903 872.87 320.591C872.714 320.279 872.498 320.039 872.222 319.871C871.946 319.691 871.61 319.601 871.214 319.601C870.842 319.601 870.512 319.691 870.224 319.871C869.936 320.039 869.714 320.279 869.558 320.591C869.402 320.903 869.324 321.275 869.324 321.707V327.449H866.966V321.707C866.966 321.275 866.888 320.903 866.732 320.591C866.576 320.279 866.354 320.039 866.066 319.871C865.79 319.691 865.46 319.601 865.076 319.601C864.704 319.601 864.374 319.691 864.086 319.871C863.798 320.039 863.576 320.279 863.42 320.591C863.264 320.903 863.186 321.275 863.186 321.707V327.449H860.828ZM882.101 327.665C881.093 327.665 880.211 327.437 879.455 326.981C878.699 326.525 878.111 325.907 877.691 325.127C877.271 324.347 877.061 323.483 877.061 322.535C877.061 321.551 877.271 320.681 877.691 319.925C878.123 319.157 878.705 318.551 879.437 318.107C880.181 317.663 881.009 317.441 881.921 317.441C882.689 317.441 883.361 317.567 883.937 317.819C884.525 318.071 885.023 318.419 885.431 318.863C885.839 319.307 886.151 319.817 886.367 320.393C886.583 320.957 886.691 321.569 886.691 322.229C886.691 322.397 886.679 322.571 886.655 322.751C886.643 322.931 886.613 323.087 886.565 323.219H879.005V321.419H885.233L884.117 322.265C884.225 321.713 884.195 321.221 884.027 320.789C883.871 320.357 883.607 320.015 883.235 319.763C882.875 319.511 882.437 319.385 881.921 319.385C881.429 319.385 880.991 319.511 880.607 319.763C880.223 320.003 879.929 320.363 879.725 320.843C879.533 321.311 879.461 321.881 879.509 322.553C879.461 323.153 879.539 323.687 879.743 324.155C879.959 324.611 880.271 324.965 880.679 325.217C881.099 325.469 881.579 325.595 882.119 325.595C882.659 325.595 883.115 325.481 883.487 325.253C883.871 325.025 884.171 324.719 884.387 324.335L886.295 325.271C886.103 325.739 885.803 326.153 885.395 326.513C884.987 326.873 884.501 327.155 883.937 327.359C883.385 327.563 882.773 327.665 882.101 327.665ZM888.478 327.449V317.657H890.692V319.583L890.512 319.241C890.74 318.653 891.112 318.209 891.628 317.909C892.156 317.597 892.768 317.441 893.464 317.441C894.184 317.441 894.82 317.597 895.372 317.909C895.936 318.221 896.374 318.659 896.686 319.223C896.998 319.775 897.154 320.417 897.154 321.149V327.449H894.796V321.707C894.796 321.275 894.712 320.903 894.544 320.591C894.376 320.279 894.142 320.039 893.842 319.871C893.554 319.691 893.212 319.601 892.816 319.601C892.432 319.601 892.09 319.691 891.79 319.871C891.49 320.039 891.256 320.279 891.088 320.591C890.92 320.903 890.836 321.275 890.836 321.707V327.449H888.478ZM903.612 327.557C902.508 327.557 901.65 327.257 901.038 326.657C900.438 326.045 900.138 325.187 900.138 324.083V319.763H898.446V317.657H898.626C899.106 317.657 899.478 317.531 899.742 317.279C900.006 317.027 900.138 316.661 900.138 316.181V315.425H902.496V317.657H904.746V319.763H902.496V323.957C902.496 324.281 902.55 324.557 902.658 324.785C902.778 325.013 902.958 325.187 903.198 325.307C903.45 325.427 903.768 325.487 904.152 325.487C904.236 325.487 904.332 325.481 904.44 325.469C904.56 325.457 904.674 325.445 904.782 325.433V327.449C904.614 327.473 904.422 327.497 904.206 327.521C903.99 327.545 903.792 327.557 903.612 327.557Z" fill="white"/>
<a href="https://doctortemplate.framer.website/booking">
<rect fill="black" fill-opacity="0" y="-1.34" width="188.594" height="22.68"/>
</a>
<path d="M1013.29 316.418C1013.51 316.033 1014.07 316.033 1014.29 316.418L1016.29 319.846C1016.37 319.987 1016.51 320.087 1016.67 320.121L1020.54 320.961C1020.98 321.055 1021.15 321.583 1020.86 321.915L1018.21 324.874C1018.1 324.995 1018.05 325.157 1018.07 325.319L1018.47 329.266C1018.51 329.709 1018.06 330.035 1017.65 329.856L1014.02 328.256C1013.88 328.19 1013.71 328.19 1013.56 328.256L1009.93 329.856C1009.52 330.035 1009.07 329.709 1009.11 329.266L1009.51 325.319C1009.53 325.157 1009.48 324.995 1009.37 324.874L1006.73 321.915C1006.43 321.583 1006.6 321.055 1007.04 320.961L1010.91 320.121C1011.07 320.087 1011.21 319.987 1011.29 319.846L1013.29 316.418Z" stroke="white" stroke-width="1.5" stroke-miterlimit="10"/>
<path d="M1035.53 327.665C1034.59 327.665 1033.7 327.497 1032.87 327.161C1032.04 326.813 1031.32 326.327 1030.69 325.703C1030.08 325.079 1029.6 324.347 1029.25 323.507C1028.9 322.655 1028.73 321.731 1028.73 320.735C1028.73 319.727 1028.9 318.803 1029.25 317.963C1029.6 317.123 1030.08 316.391 1030.69 315.767C1031.32 315.143 1032.04 314.663 1032.85 314.327C1033.68 313.991 1034.57 313.823 1035.53 313.823C1036.49 313.823 1037.38 313.997 1038.2 314.345C1039.03 314.681 1039.75 315.161 1040.36 315.785C1040.98 316.397 1041.47 317.123 1041.82 317.963C1042.18 318.803 1042.36 319.727 1042.36 320.735C1042.36 321.731 1042.18 322.655 1041.82 323.507C1041.47 324.347 1040.98 325.079 1040.36 325.703C1039.75 326.327 1039.03 326.813 1038.2 327.161C1037.38 327.497 1036.49 327.665 1035.53 327.665ZM1035.53 326.027C1036.28 326.027 1036.96 325.895 1037.57 325.631C1038.18 325.355 1038.71 324.977 1039.15 324.497C1039.61 324.005 1039.96 323.441 1040.2 322.805C1040.45 322.157 1040.57 321.467 1040.57 320.735C1040.57 320.003 1040.45 319.319 1040.2 318.683C1039.96 318.047 1039.61 317.489 1039.15 317.009C1038.71 316.517 1038.18 316.139 1037.57 315.875C1036.96 315.599 1036.28 315.461 1035.53 315.461C1034.8 315.461 1034.13 315.599 1033.52 315.875C1032.91 316.139 1032.37 316.517 1031.92 317.009C1031.47 317.489 1031.12 318.047 1030.87 318.683C1030.62 319.319 1030.49 320.003 1030.49 320.735C1030.49 321.467 1030.62 322.157 1030.87 322.805C1031.12 323.441 1031.47 324.005 1031.92 324.497C1032.37 324.977 1032.91 325.355 1033.52 325.631C1034.13 325.895 1034.8 326.027 1035.53 326.027ZM1048.17 327.665C1047.47 327.665 1046.84 327.503 1046.28 327.179C1045.73 326.855 1045.29 326.405 1044.98 325.829C1044.68 325.241 1044.53 324.569 1044.53 323.813V317.747H1046.21V323.633C1046.21 324.113 1046.3 324.533 1046.49 324.893C1046.7 325.253 1046.97 325.535 1047.32 325.739C1047.68 325.943 1048.09 326.045 1048.55 326.045C1049 326.045 1049.4 325.943 1049.75 325.739C1050.11 325.535 1050.39 325.241 1050.58 324.857C1050.78 324.473 1050.89 324.017 1050.89 323.489V317.747H1052.58V327.449H1050.94V325.559L1051.21 325.721C1050.98 326.333 1050.59 326.813 1050.04 327.161C1049.5 327.497 1048.88 327.665 1048.17 327.665ZM1055.17 327.449V317.747H1056.81V319.529L1056.63 319.277C1056.86 318.725 1057.21 318.317 1057.67 318.053C1058.14 317.777 1058.71 317.639 1059.38 317.639H1059.98V319.223H1059.13C1058.45 319.223 1057.9 319.439 1057.48 319.871C1057.06 320.291 1056.85 320.891 1056.85 321.671V327.449H1055.17ZM1068.05 327.665C1067.08 327.665 1066.23 327.425 1065.51 326.945C1064.79 326.465 1064.28 325.817 1063.98 325.001L1065.31 324.353C1065.59 324.929 1065.97 325.385 1066.45 325.721C1066.93 326.057 1067.46 326.225 1068.05 326.225C1068.58 326.225 1069.02 326.099 1069.36 325.847C1069.71 325.595 1069.89 325.265 1069.89 324.857C1069.89 324.569 1069.8 324.341 1069.63 324.173C1069.48 323.993 1069.29 323.855 1069.06 323.759C1068.83 323.651 1068.62 323.573 1068.43 323.525L1066.97 323.111C1066.09 322.859 1065.45 322.499 1065.04 322.031C1064.65 321.563 1064.45 321.017 1064.45 320.393C1064.45 319.817 1064.59 319.319 1064.88 318.899C1065.18 318.467 1065.58 318.131 1066.09 317.891C1066.6 317.651 1067.18 317.531 1067.82 317.531C1068.67 317.531 1069.43 317.747 1070.1 318.179C1070.79 318.611 1071.27 319.217 1071.56 319.997L1070.19 320.627C1069.98 320.123 1069.65 319.727 1069.22 319.439C1068.79 319.139 1068.3 318.989 1067.76 318.989C1067.27 318.989 1066.88 319.115 1066.59 319.367C1066.3 319.607 1066.16 319.913 1066.16 320.285C1066.16 320.561 1066.23 320.789 1066.38 320.969C1066.52 321.137 1066.69 321.269 1066.9 321.365C1067.1 321.449 1067.3 321.521 1067.49 321.581L1069.08 322.049C1069.87 322.277 1070.48 322.631 1070.91 323.111C1071.36 323.591 1071.58 324.167 1071.58 324.839C1071.58 325.379 1071.43 325.865 1071.13 326.297C1070.83 326.729 1070.41 327.065 1069.89 327.305C1069.36 327.545 1068.75 327.665 1068.05 327.665ZM1073.77 331.049V317.747H1075.41V319.835L1075.19 319.421C1075.55 318.845 1076.04 318.389 1076.67 318.053C1077.29 317.705 1078 317.531 1078.81 317.531C1079.72 317.531 1080.54 317.753 1081.26 318.197C1081.99 318.641 1082.56 319.247 1082.98 320.015C1083.4 320.771 1083.61 321.635 1083.61 322.607C1083.61 323.555 1083.4 324.413 1082.98 325.181C1082.56 325.949 1081.99 326.555 1081.26 326.999C1080.54 327.443 1079.71 327.665 1078.79 327.665C1078.01 327.665 1077.3 327.491 1076.65 327.143C1076.01 326.795 1075.52 326.303 1075.17 325.667L1075.44 325.379V331.049H1073.77ZM1078.66 326.045C1079.28 326.045 1079.82 325.895 1080.3 325.595C1080.78 325.295 1081.15 324.887 1081.42 324.371C1081.69 323.843 1081.83 323.255 1081.83 322.607C1081.83 321.935 1081.69 321.347 1081.42 320.843C1081.15 320.327 1080.78 319.919 1080.3 319.619C1079.82 319.307 1079.28 319.151 1078.66 319.151C1078.05 319.151 1077.5 319.301 1077.01 319.601C1076.53 319.901 1076.14 320.315 1075.86 320.843C1075.58 321.359 1075.44 321.947 1075.44 322.607C1075.44 323.255 1075.58 323.843 1075.86 324.371C1076.14 324.887 1076.53 325.295 1077.01 325.595C1077.5 325.895 1078.05 326.045 1078.66 326.045ZM1090.27 327.665C1089.34 327.665 1088.5 327.443 1087.77 326.999C1087.04 326.555 1086.46 325.949 1086.04 325.181C1085.62 324.401 1085.41 323.531 1085.41 322.571C1085.41 321.599 1085.62 320.735 1086.03 319.979C1086.45 319.223 1087.01 318.629 1087.72 318.197C1088.44 317.753 1089.24 317.531 1090.13 317.531C1090.85 317.531 1091.49 317.663 1092.04 317.927C1092.6 318.179 1093.08 318.527 1093.46 318.971C1093.86 319.403 1094.16 319.901 1094.36 320.465C1094.58 321.017 1094.68 321.593 1094.68 322.193C1094.68 322.325 1094.67 322.475 1094.65 322.643C1094.64 322.799 1094.62 322.949 1094.59 323.093H1086.64V321.653H1093.62L1092.83 322.301C1092.94 321.677 1092.88 321.119 1092.65 320.627C1092.42 320.135 1092.09 319.745 1091.64 319.457C1091.2 319.169 1090.69 319.025 1090.13 319.025C1089.57 319.025 1089.05 319.169 1088.58 319.457C1088.11 319.745 1087.75 320.159 1087.48 320.699C1087.23 321.227 1087.13 321.857 1087.18 322.589C1087.13 323.297 1087.24 323.921 1087.5 324.461C1087.78 324.989 1088.16 325.403 1088.65 325.703C1089.16 325.991 1089.7 326.135 1090.29 326.135C1090.94 326.135 1091.49 325.985 1091.93 325.685C1092.37 325.385 1092.73 325.001 1093.01 324.533L1094.41 325.253C1094.22 325.697 1093.92 326.105 1093.51 326.477C1093.12 326.837 1092.64 327.125 1092.09 327.341C1091.55 327.557 1090.95 327.665 1090.27 327.665ZM1101.37 327.665C1100.42 327.665 1099.57 327.443 1098.83 326.999C1098.1 326.555 1097.52 325.949 1097.1 325.181C1096.68 324.413 1096.47 323.549 1096.47 322.589C1096.47 321.617 1096.68 320.753 1097.1 319.997C1097.52 319.241 1098.1 318.641 1098.83 318.197C1099.57 317.753 1100.42 317.531 1101.37 317.531C1102 317.531 1102.6 317.645 1103.15 317.873C1103.7 318.101 1104.19 318.407 1104.61 318.791C1105.03 319.175 1105.33 319.625 1105.52 320.141L1104.03 320.861C1103.8 320.357 1103.45 319.949 1102.99 319.637C1102.52 319.313 1101.98 319.151 1101.37 319.151C1100.78 319.151 1100.24 319.301 1099.76 319.601C1099.3 319.901 1098.92 320.309 1098.65 320.825C1098.37 321.341 1098.23 321.935 1098.23 322.607C1098.23 323.255 1098.37 323.843 1098.65 324.371C1098.92 324.887 1099.3 325.295 1099.76 325.595C1100.24 325.895 1100.78 326.045 1101.37 326.045C1101.98 326.045 1102.52 325.889 1102.99 325.577C1103.45 325.253 1103.8 324.827 1104.03 324.299L1105.52 325.055C1105.33 325.559 1105.03 326.009 1104.61 326.405C1104.19 326.789 1103.7 327.095 1103.15 327.323C1102.6 327.551 1102 327.665 1101.37 327.665ZM1107.71 327.449V317.747H1109.39V327.449H1107.71ZM1107.71 316.199V314.039H1109.39V316.199H1107.71ZM1114.83 327.665C1114.19 327.665 1113.63 327.551 1113.14 327.323C1112.66 327.083 1112.28 326.759 1112 326.351C1111.73 325.931 1111.59 325.451 1111.59 324.911C1111.59 324.395 1111.7 323.933 1111.91 323.525C1112.14 323.105 1112.49 322.751 1112.96 322.463C1113.44 322.175 1114.04 321.971 1114.76 321.851L1118.36 321.257V322.661L1115.13 323.201C1114.51 323.309 1114.05 323.507 1113.77 323.795C1113.49 324.083 1113.35 324.437 1113.35 324.857C1113.35 325.253 1113.51 325.583 1113.82 325.847C1114.14 326.111 1114.55 326.243 1115.03 326.243C1115.64 326.243 1116.17 326.117 1116.61 325.865C1117.07 325.601 1117.42 325.247 1117.67 324.803C1117.94 324.359 1118.07 323.867 1118.07 323.327V320.861C1118.07 320.333 1117.87 319.907 1117.47 319.583C1117.09 319.247 1116.58 319.079 1115.94 319.079C1115.39 319.079 1114.9 319.223 1114.47 319.511C1114.05 319.787 1113.74 320.159 1113.53 320.627L1112.07 319.871C1112.25 319.427 1112.54 319.031 1112.94 318.683C1113.33 318.323 1113.8 318.041 1114.32 317.837C1114.85 317.633 1115.4 317.531 1115.98 317.531C1116.72 317.531 1117.38 317.675 1117.94 317.963C1118.51 318.239 1118.94 318.629 1119.26 319.133C1119.58 319.625 1119.74 320.201 1119.74 320.861V327.449H1118.1V325.613L1118.41 325.721C1118.21 326.105 1117.93 326.441 1117.58 326.729C1117.23 327.017 1116.83 327.245 1116.36 327.413C1115.89 327.581 1115.38 327.665 1114.83 327.665ZM1122.34 327.449V313.823H1124.01V327.449H1122.34ZM1126.61 327.449V317.747H1128.28V327.449H1126.61ZM1126.61 316.199V314.039H1128.28V316.199H1126.61ZM1134.82 327.557C1133.87 327.557 1133.14 327.287 1132.63 326.747C1132.12 326.207 1131.87 325.445 1131.87 324.461V319.349H1130.11V317.747H1130.47C1130.9 317.747 1131.24 317.615 1131.49 317.351C1131.74 317.087 1131.87 316.739 1131.87 316.307V315.515H1133.54V317.747H1135.72V319.349H1133.54V324.407C1133.54 324.731 1133.59 325.013 1133.69 325.253C1133.8 325.493 1133.97 325.685 1134.21 325.829C1134.45 325.961 1134.77 326.027 1135.16 326.027C1135.25 326.027 1135.35 326.021 1135.47 326.009C1135.6 325.997 1135.72 325.985 1135.83 325.973V327.449C1135.67 327.485 1135.5 327.509 1135.31 327.521C1135.12 327.545 1134.95 327.557 1134.82 327.557ZM1138.02 327.449V317.747H1139.69V327.449H1138.02ZM1138.02 316.199V314.039H1139.69V316.199H1138.02ZM1146.75 327.665C1145.82 327.665 1144.98 327.443 1144.25 326.999C1143.52 326.555 1142.94 325.949 1142.52 325.181C1142.1 324.401 1141.89 323.531 1141.89 322.571C1141.89 321.599 1142.1 320.735 1142.5 319.979C1142.92 319.223 1143.49 318.629 1144.2 318.197C1144.92 317.753 1145.72 317.531 1146.61 317.531C1147.33 317.531 1147.96 317.663 1148.52 317.927C1149.08 318.179 1149.55 318.527 1149.94 318.971C1150.33 319.403 1150.63 319.901 1150.84 320.465C1151.05 321.017 1151.16 321.593 1151.16 322.193C1151.16 322.325 1151.15 322.475 1151.13 322.643C1151.11 322.799 1151.1 322.949 1151.07 323.093H1143.12V321.653H1150.1L1149.31 322.301C1149.42 321.677 1149.36 321.119 1149.13 320.627C1148.9 320.135 1148.56 319.745 1148.12 319.457C1147.68 319.169 1147.17 319.025 1146.61 319.025C1146.04 319.025 1145.53 319.169 1145.06 319.457C1144.59 319.745 1144.23 320.159 1143.96 320.699C1143.71 321.227 1143.61 321.857 1143.66 322.589C1143.61 323.297 1143.72 323.921 1143.98 324.461C1144.26 324.989 1144.64 325.403 1145.13 325.703C1145.64 325.991 1146.18 326.135 1146.77 326.135C1147.42 326.135 1147.96 325.985 1148.41 325.685C1148.85 325.385 1149.21 325.001 1149.49 324.533L1150.89 325.253C1150.7 325.697 1150.4 326.105 1149.99 326.477C1149.6 326.837 1149.12 327.125 1148.57 327.341C1148.03 327.557 1147.42 327.665 1146.75 327.665ZM1156.82 327.665C1155.85 327.665 1155 327.425 1154.28 326.945C1153.56 326.465 1153.05 325.817 1152.75 325.001L1154.08 324.353C1154.36 324.929 1154.74 325.385 1155.22 325.721C1155.7 326.057 1156.23 326.225 1156.82 326.225C1157.35 326.225 1157.79 326.099 1158.13 325.847C1158.48 325.595 1158.66 325.265 1158.66 324.857C1158.66 324.569 1158.57 324.341 1158.4 324.173C1158.25 323.993 1158.06 323.855 1157.83 323.759C1157.6 323.651 1157.39 323.573 1157.2 323.525L1155.74 323.111C1154.86 322.859 1154.22 322.499 1153.81 322.031C1153.42 321.563 1153.22 321.017 1153.22 320.393C1153.22 319.817 1153.36 319.319 1153.65 318.899C1153.95 318.467 1154.35 318.131 1154.86 317.891C1155.37 317.651 1155.95 317.531 1156.59 317.531C1157.44 317.531 1158.2 317.747 1158.87 318.179C1159.56 318.611 1160.04 319.217 1160.33 319.997L1158.96 320.627C1158.75 320.123 1158.42 319.727 1157.99 319.439C1157.56 319.139 1157.07 318.989 1156.53 318.989C1156.04 318.989 1155.65 319.115 1155.36 319.367C1155.07 319.607 1154.93 319.913 1154.93 320.285C1154.93 320.561 1155 320.789 1155.15 320.969C1155.29 321.137 1155.46 321.269 1155.67 321.365C1155.87 321.449 1156.07 321.521 1156.26 321.581L1157.85 322.049C1158.64 322.277 1159.25 322.631 1159.68 323.111C1160.13 323.591 1160.35 324.167 1160.35 324.839C1160.35 325.379 1160.2 325.865 1159.9 326.297C1159.6 326.729 1159.18 327.065 1158.66 327.305C1158.13 327.545 1157.52 327.665 1156.82 327.665Z" fill="white"/>
<a href="https://doctortemplate.framer.website/service-pages/services">
<rect fill="black" fill-opacity="0" x="0.151138" y="-1.34" width="133.616" height="22.68"/>
</a>
<mask id="path-13-inside-1_1_1111" fill="white">
<path d="M967.48 322.939C967.48 303.057 983.598 286.939 1003.48 286.939H1163.09C1182.97 286.939 1199.09 303.057 1199.09 322.939C1199.09 342.822 1182.97 358.939 1163.09 358.939H1003.48C983.598 358.939 967.48 342.822 967.48 322.939Z"/>
</mask>
<path d="M1003.48 287.939H1163.09V285.939H1003.48V287.939ZM1163.09 357.939H1003.48V359.939H1163.09V357.939ZM1003.48 357.939C984.15 357.939 968.48 342.269 968.48 322.939H966.48C966.48 343.374 983.045 359.939 1003.48 359.939V357.939ZM1198.09 322.939C1198.09 342.269 1182.42 357.939 1163.09 357.939V359.939C1183.52 359.939 1200.09 343.374 1200.09 322.939H1198.09ZM1163.09 287.939C1182.42 287.939 1198.09 303.609 1198.09 322.939H1200.09C1200.09 302.505 1183.52 285.939 1163.09 285.939V287.939ZM1003.48 285.939C983.045 285.939 966.48 302.505 966.48 322.939H968.48C968.48 303.609 984.15 287.939 1003.48 287.939V285.939Z" fill="white" mask="url(#path-13-inside-1_1_1111)"/>
</g>
<defs>
<clipPath id="clip0_1_1111">
<rect y="0.969727" width="1856" height="451.97" rx="40" fill="white"/>
</clipPath>
<clipPath id="clip1_1_1111">
<rect width="18" height="18" fill="white" transform="translate(693.89 314.939)"/>
</clipPath>
</defs>
</svg>
